<svg xmlns="http://www.w3.org/2000/svg"
shape-rendering="geometricPrecision"
width="4000" height="4000" viewBox="0 0 907 907">
  <metadata>null</metadata>

<path d="
M 41.468 600.1
C 42.409 593.963 46.146 584.941 53.924 585.936
C 49.846 594.652 49.359 607.348 57.207 614.35
C 67.228 623.29 89.18 622.426 94.89 608.848
C 99.178 598.649 93.223 589.192 85.313 582.963
C 72.484 572.86 51.63 565.945 50.618 546.914
C 50.471 544.146 50.773 541.37 51.504 538.698
C 55.839 522.846 73.085 518.605 87.542 521.399
C 91.712 522.204 95.786 523.647 99.433 525.841
C 100.571 526.525 102.158 527.315 102.929 528.426
C 103.324 533.382 102.542 538.598 102.35 543.562
C 102.282 545.317 101.732 548.055 102.248 549.692
C 101.429 549.655 99.524 550.181 98.892 549.671
C 98.265 541.084 95.507 531.611 87.51 527.105
C 77.481 521.452 61.675 524.75 60.22 537.821
C 58.945 549.278 69.443 555.873 77.962 561.062
C 91.448 569.276 107.037 579.233 106.354 597.058
C 106.251 599.743 105.782 602.43 104.899 604.972
C 98.728 622.731 76.69 626.997 60.392 622.557
C 49.926 619.707 40.418 611.842 41.468 600.1 Z"
opacity="1" fill="rgb(50,91,112)" fill-rule="evenodd" />
<path d="
M 117.459 585.596
C 118.839 573.474 126.104 561.249 137.39 556.029
C 149.013 550.652 165.839 552.086 174.465 562.378
C 180.366 569.42 182.139 579.464 181.016 588.411
C 179.702 598.866 175.244 609.675 166.242 615.825
C 153.521 624.514 133.319 624.565 123.369 611.447
C 117.803 604.109 116.439 594.554 117.459 585.596 Z
M 129.943 581.626
C 129.293 592.22 131.597 606.79 139.972 614.19
C 146.566 620.018 157.117 618.863 162.668 612.214
C 166.56 607.553 168.002 600.727 168.36 594.814
C 169.015 583.977 167.718 570.178 159.702 562.003
C 152.36 554.516 140.308 555.843 134.571 564.528
C 131.248 569.559 130.305 575.739 129.943 581.626 Z"
opacity="1" fill="rgb(51,92,114)" fill-rule="evenodd" />
<path d="
M 186.461 561.611
C 186.427 560.936 186.368 561.24 186.586 560.69
C 190.657 557.972 196.115 556.65 200.738 555.185
C 203.137 554.424 205.611 553.277 208.16 553.216
C 209.483 553.807 209.434 555.426 209.403 556.651
C 209.321 559.767 209.263 562.883 209.193 565.999
C 209.006 574.331 208.668 582.655 208.613 590.995
C 208.583 595.578 208.198 600.503 209.435 604.965
C 211.363 611.927 219.132 613.984 225.439 612.096
C 230.027 610.722 234.011 607.4 236.286 603.201
C 241.842 592.948 240.28 579.211 240.294 568.002
C 240.297 565.057 240.345 562.109 240.306 559.164
C 240.29 558.007 239.957 556.436 240.417 555.376
C 244.302 555.089 248.187 554.406 252.064 554.183
C 252.256 568.602 251.261 583.071 251.335 597.505
C 251.353 601.021 251.373 604.517 251.581 608.022
C 251.685 609.782 251.849 611.775 253.238 613.041
C 255.444 615.054 259.74 612.684 262.153 612.054
C 262.504 612.178 263.487 614.121 263.283 614.529
C 262.186 614.811 261.129 615.543 260.06 615.967
C 254.363 618.224 247.987 622.015 241.721 622.198
C 238.681 616.179 241.965 608.681 240.546 602.428
C 239.343 603.974 238.503 605.964 237.427 607.631
C 235.419 610.741 233.043 613.487 230.086 615.728
C 226.955 618.101 223.492 620.023 219.672 621.021
C 217.346 621.629 214.895 621.894 212.497 621.701
C 210.748 621.561 209.087 621.194 207.447 620.566
C 193.924 615.388 197.62 597.351 197.766 586
C 197.806 582.832 197.853 579.663 197.866 576.496
C 197.878 573.601 197.978 570.696 197.859 567.803
C 197.799 566.334 197.889 564.697 197.112 563.388
C 194.978 559.794 190.069 562.419 187.024 562.919
C 186.63 562.467 186.555 562.199 186.461 561.611 Z"
opacity="1" fill="rgb(49,91,113)" fill-rule="evenodd" />
<path d="
M 219.182 649.723
C 221.941 649.339 224.813 649.606 227.594 649.624
C 232.242 649.654 237.446 649.072 241.495 651.797
C 246.653 655.269 247.437 663.347 243.977 668.238
C 242.531 670.282 240.317 671.533 237.985 672.335
C 241.089 677.222 243.607 682.701 246.953 687.393
C 245.389 687.179 243.647 687.364 242.07 687.417
C 241.389 686.49 241.046 685.303 240.449 684.313
C 238.153 680.504 235.958 676.57 233.524 672.854
C 230.875 672.249 226.333 672.486 223.694 673.148
C 223.79 676.655 223.752 680.172 223.656 683.678
C 223.629 684.649 224.012 686.673 223.287 687.399
C 222.016 687.346 220.718 687.368 219.462 687.167
C 219.39 674.712 219.682 662.177 219.182 649.723 Z
M 224.044 653.545
C 223.894 653.576 223.744 653.608 223.594 653.639
C 223.564 658.719 223.841 663.845 223.59 668.925
C 224.696 669.804 227.993 669.145 229.411 669.137
C 232.534 669.12 236.533 669.662 239.151 667.555
C 242.896 664.54 242.566 657.528 238.694 654.804
C 236.831 653.494 234.415 653.475 232.219 653.445
C 229.542 653.408 226.694 653.151 224.044 653.545 Z"
opacity="1" fill="rgb(134,84,47)" fill-rule="evenodd" />
<path d="
M 264.475 672.121
C 265.523 664.789 264.216 657.018 264.67 649.62
C 272.554 649.398 280.481 649.807 288.353 649.48
C 288.572 650.757 288.622 651.968 288.665 653.252
C 282.327 653.029 275.139 652.523 268.875 653.497
C 268.788 657.718 268.947 661.979 268.74 666.196
C 269.994 666.531 271.696 666.22 273.002 666.21
C 276.003 666.189 279.004 666.21 282.005 666.161
C 283.143 666.143 286.201 665.561 287.083 666.218
C 287.098 667.468 286.956 668.686 286.878 669.931
C 280.93 669.796 274.837 669.66 268.911 670.004
C 267.889 674.252 269.056 679.299 268.688 683.666
C 273.287 683.738 277.898 683.615 282.501 683.626
C 284.38 683.631 286.99 683.133 288.757 683.764
C 288.856 684.994 288.822 686.211 288.894 687.436
C 283.766 687.299 278.634 687.254 273.501 687.317
C 270.615 687.352 267.354 687.759 264.513 687.263
C 264.28 682.275 264.204 677.11 264.475 672.121 Z"
opacity="1" fill="rgb(131,83,44)" fill-rule="evenodd" />
<path d="
M 265.323 560.074
C 267.117 555.656 271.457 555.522 275.642 555.301
C 275.384 550.307 275.716 545.092 275.023 540.139
C 278.868 538.495 283.646 537.968 287.696 536.849
C 288.166 542.932 286.215 549.307 286.448 555.427
C 289.755 555.079 293.181 555.275 296.506 555.276
C 299.249 555.277 302.077 555.049 304.802 555.353
C 304.971 556.535 303.409 559.146 302.798 560.195
C 299.107 560.577 295.211 560.226 291.497 560.261
C 289.88 560.277 288.062 560.053 286.518 560.596
C 286.094 573.508 285.731 586.423 285.755 599.345
C 285.763 603.938 285.239 610.653 290.282 612.968
C 293.808 614.586 298.49 613.051 301.535 611.081
C 302.645 610.363 304.599 608.319 305.913 608.307
C 306.32 608.97 307.387 609.872 307.195 610.731
C 302.574 615.763 296.304 620.349 289.464 621.613
C 283.032 622.801 277.162 620.285 275.296 613.727
C 273.559 607.622 274.7 600.399 274.88 594.138
C 275.202 582.888 275.277 571.628 275.428 560.382
C 272.258 559.671 268.365 560.552 265.143 560.715
C 265.203 560.501 265.263 560.287 265.323 560.074 Z"
opacity="1" fill="rgb(47,90,113)" fill-rule="evenodd" />
<path d="
M 278.386 467.896
C 279.601 466.706 281.217 465.915 282.646 465.007
C 286.842 462.343 291.269 459.86 295.992 458.239
C 298.595 457.346 301.698 457.093 304.157 455.963
C 300.22 451.502 297.191 446.664 294.525 441.331
C 292.991 438.264 291.283 435.185 290.624 431.794
C 292.014 431.084 293.34 431.212 294.838 431.011
C 298.226 430.558 301.664 430.658 305.072 430.82
C 306.339 430.88 308.983 431.58 310.067 431.098
C 309.626 426.427 307.685 421.768 307.122 417.036
C 306.936 415.475 306.447 413.844 306.711 412.275
C 312.372 412.012 318.922 414.663 324.134 416.695
C 326.188 417.496 328.765 419.39 330.943 419.52
C 332.043 414.005 333.347 407.999 335.983 402.993
C 337.633 403.007 338.934 404.301 340.215 405.249
C 343.608 407.763 347.568 410.039 350.228 413.395
C 350.677 413.496 350.823 412.926 350.984 412.584
C 351.539 411.405 352.203 410.272 352.929 409.191
C 355.062 406.011 357.296 402.913 359.772 399.988
C 360.692 398.9 361.672 397.214 363 396.645
C 368.467 400.672 372.014 407.756 375.925 413.132
C 377.106 412.574 377.994 411.308 378.989 410.464
C 381.378 408.436 383.761 406.418 386.333 404.624
C 387.631 403.718 388.876 402.541 390.555 402.554
C 392.883 407.81 394.974 413.462 395.841 419.175
C 396.227 419.645 397.303 418.413 397.687 418.148
C 399.234 417.08 401.42 416.441 403.178 415.78
C 408.47 413.788 413.985 412.353 419.602 411.714
C 420.378 412.476 419.506 415.281 419.412 416.352
C 418.984 421.217 417.907 426.605 416.191 431.181
C 422.342 430.758 430.001 428.731 435.893 431.629
C 436.509 433.287 434.323 436.958 433.576 438.516
C 431.924 441.956 430.379 445.412 428.392 448.684
C 426.839 451.241 424.699 453.516 423.308 456.146
C 423.539 456.57 424.401 456.411 424.867 456.513
C 426.473 456.865 428.061 457.277 429.639 457.738
C 434.734 459.227 439.659 461.799 444.063 464.733
C 445.377 465.609 446.686 466.517 447.966 467.443
C 448.411 467.765 449.037 468.009 448.934 468.609
C 447.308 472.045 442.415 475.18 439.306 477.219
C 433.943 480.736 428.324 483.901 422.163 485.825
C 417.238 487.364 412.136 487.94 407.13 488.995
C 409.968 492.687 414.421 496.735 415.447 501.494
C 415.019 501.968 413.437 502.23 412.783 502.415
C 410.254 503.134 407.584 503.323 404.974 503.446
C 393.491 503.988 381.381 500.963 372.281 493.644
C 369.611 491.496 367.195 488.955 365.337 486.075
C 364.693 485.078 364.162 482.801 362.942 482.821
C 362.033 483.88 361.645 485.378 360.811 486.528
C 358.841 489.244 356.365 491.751 353.763 493.863
C 342.307 503.162 325.595 505.931 311.585 501.634
C 311.591 500.252 312.964 498.855 313.73 497.742
C 315.131 495.708 316.347 493.493 317.808 491.509
C 318.526 490.533 319.675 489.868 320.312 488.88
C 319.704 489.137 318.262 488.76 317.581 488.635
C 315.061 488.172 312.542 487.636 310.06 487.005
C 301.011 484.705 293.097 480.093 285.437 474.919
C 282.99 473.266 279.375 471.316 277.954 468.65
C 278.098 468.399 278.242 468.148 278.386 467.896 Z
M 323.361 485.354
C 325.998 483.171 328.882 481.041 332.006 479.628
C 332.505 479.402 335.024 478.908 335.022 478.224
C 333.976 477.759 332.795 477.707 331.729 477.257
C 328.288 475.803 324.977 474.092 321.755 472.21
C 315.645 468.643 311.169 463.599 306.137 458.778
C 304.873 456.811 301.106 458.627 299.168 459.261
C 294.964 460.638 291.013 462.454 287.179 464.665
C 285.244 465.781 282.897 467.915 280.825 468.54
C 280.853 469.383 282.111 469.903 282.757 470.42
C 284.784 472.046 286.92 473.578 289.083 475.016
C 296.492 479.94 304.367 483.748 313.057 485.724
C 315.078 486.183 317.107 486.487 319.139 486.877
C 319.825 487.009 321.061 487.488 321.719 487.072
C 322.353 486.669 322.839 485.883 323.361 485.354 Z
M 337.974 477.101
C 341.304 479.221 346.48 479.35 350.286 479.603
C 351.311 479.671 352.437 479.87 353.454 479.658
C 353.615 479.625 354.556 479.258 354.466 479.046
C 354.367 478.816 353.419 478.424 353.19 478.338
C 351.757 477.799 350.193 477.595 348.754 477.016
C 343.931 475.076 339.348 472.966 335.091 469.959
C 323.732 461.937 315.437 449.251 311.484 435.994
C 311.261 435.051 310.93 434.14 310.543 433.257
C 309.252 432.599 306.949 432.814 305.51 432.78
C 301.557 432.687 296.882 432.138 293.07 433.349
C 299.452 449.701 310.345 463.454 325.706 472.055
C 329.538 474.201 333.602 476.338 337.974 477.101 Z
M 349.136 471.855
C 346.783 468.373 344.219 465.36 342.425 461.495
C 338.217 452.431 339.395 442.268 341.638 432.902
C 341.784 432.1 342.155 431.376 342.245 430.557
C 340.714 428.344 337.738 426.535 335.538 425.045
C 327.343 419.494 318.46 416.449 308.854 414.338
C 308.601 416.424 309.3 418.874 309.762 420.905
C 310.387 423.651 310.864 426.43 311.69 429.124
C 315.812 442.572 320.818 456.159 332.153 465.405
C 336.802 469.197 341.731 472.78 347.402 474.86
C 349.464 475.615 351.715 475.978 353.652 477.026
C 353.863 477.14 355.712 477.996 355.847 477.805
C 356.011 477.572 355.578 476.926 355.494 476.772
C 353.605 475.07 351.274 473.251 349.136 471.855 Z
M 315.787 500.555
C 315.988 501.397 317.344 501.222 318.141 501.279
C 320.699 501.461 323.257 501.798 325.825 501.778
C 336.492 501.694 347.485 497.566 355.121 490.054
C 357.263 487.947 358.813 485.514 360.715 483.222
C 361.117 482.738 363.166 481.444 362.134 480.81
C 357.39 483.194 353.454 486.843 348.299 488.503
C 341.157 490.803 333.535 491.249 326.496 493.922
C 324.244 494.776 322.318 496.156 320.328 497.465
C 318.812 498.462 317.072 499.262 315.787 500.555 Z
M 316.34 497.189
C 316.602 497.669 317.296 497.191 317.643 496.954
C 319.037 496.002 320.115 494.75 321.636 493.94
C 325.336 491.971 329.15 490.728 333.208 489.749
C 337.164 488.794 341.238 488.443 345.166 487.363
C 347.525 486.714 349.688 485.64 351.935 484.714
C 353.336 484.136 354.635 483.413 355.991 482.741
C 356.503 482.487 357.465 482.172 357.329 481.465
C 356.164 481.029 354.772 481.309 353.532 481.261
C 351.283 481.174 349.042 480.938 346.794 480.824
C 343.839 480.675 340.811 479.045 337.898 479.194
C 336.442 479.268 334.948 480.194 333.652 480.807
C 329.202 482.912 325.31 485.602 322.078 489.359
C 320.064 491.749 318.639 495.125 316.34 497.189 Z
M 336.5 423.48
C 338.298 424.316 339.973 425.656 341.473 426.941
C 341.823 427.24 342.735 428.505 343.178 428.389
C 343.952 427.245 344.099 425.802 344.643 424.548
C 345.769 421.95 347.111 419.465 348.299 416.898
C 348.643 416.27 349.168 415.814 349.278 415.082
C 346.38 410.946 341.132 407.434 336.817 405.015
C 335.288 410.007 332.958 415.331 332.687 420.585
C 333.333 421.704 335.376 422.794 336.5 423.48 Z
M 341.547 444.122
C 340.132 455.317 345.558 467.723 354.963 473.905
C 357.944 475.864 361.018 478.622 364.835 477.629
C 369.388 476.445 373.504 473.028 376.478 469.51
C 379.258 466.221 381.547 462.867 383.043 458.776
C 387.164 447.51 383.813 433.995 379.064 423.517
C 375.912 416.562 372.015 410.281 367.337 404.259
C 366.344 402.98 365.311 401.773 364.227 400.571
C 363.763 400.055 363.137 399 362.478 399.412
C 361.518 401.064 360.019 402.469 358.876 404.013
C 354.839 409.466 350.807 415.375 348.003 421.565
C 346.231 425.478 344.172 429.748 343.252 433.957
C 342.531 437.255 342.464 440.917 341.547 444.122 Z
M 364.26 480.636
C 365.029 483.742 368.589 487.546 370.895 489.734
C 378.818 497.255 389.209 500.947 399.981 501.724
C 403.188 501.955 406.319 501.737 409.478 501.249
C 410.532 501.086 412.178 501.709 413.059 501.022
C 412.717 499.999 411.067 499.838 410.177 499.348
C 407.188 497.703 404.634 495.449 401.429 494.158
C 394.035 491.18 386.119 490.381 378.517 488.061
C 373.306 486.471 369.034 483.095 364.26 480.636 Z
M 368.256 480.392
C 369.687 482.586 374.154 484.237 376.539 485.214
C 384.173 488.34 392.494 488.724 400.127 491.673
C 402.729 492.678 405.22 494.03 407.662 495.373
C 408.814 496.006 410.081 497.308 411.426 497.4
C 411.347 496.39 410.004 495.368 409.389 494.62
C 407.701 492.565 406.312 490.499 404.41 488.6
C 400.581 484.777 395.404 480.605 389.997 479.297
C 387.065 478.589 383.36 480.283 380.422 480.618
C 377.703 480.929 374.735 480.977 372.004 480.806
C 370.766 480.728 369.481 480.249 368.256 480.392 Z
M 384.305 432.047
C 386.988 442.379 387.748 452.789 383.214 462.777
C 382.049 465.344 380.059 467.368 378.701 469.791
C 377.066 471.413 375.88 473.294 373.945 474.654
C 373.626 474.879 370.687 476.913 371.486 477.315
C 372.519 477.835 373.618 476.392 374.408 475.999
C 377.008 474.705 379.922 474.183 382.582 473.006
C 395.312 467.374 406.16 454.459 410.854 441.472
C 413.952 432.626 417.086 423.384 417.951 413.987
C 408.559 415.534 399.655 418.873 391.667 424.056
C 389.305 425.588 384.875 427.658 383.765 430.401
C 383.905 430.971 384.14 431.486 384.305 432.047 Z
M 415.082 434.847
C 414.258 436.14 414.027 437.84 413.519 439.274
C 412.58 441.929 411.458 444.5 410.263 447.047
C 406.244 455.612 400.895 461.784 393.66 467.786
C 391.664 469.442 389.738 471.71 387.403 472.864
C 384.3 474.584 381.189 476.109 377.733 477.013
C 376.382 477.366 374.906 477.624 373.606 478.103
C 372.974 478.336 372.08 478.464 372.884 479.085
C 378.488 479.907 384.812 478.319 390.155 476.707
C 404.782 472.294 417.07 462.562 425.414 449.83
C 427.955 445.954 430.136 441.941 432.091 437.741
C 432.653 436.533 434.057 434.058 433.663 432.732
C 429.305 431.845 424.343 432.328 419.947 432.765
C 417.971 432.962 415.727 432.522 415.082 434.847 Z
M 378.448 417.533
C 379.467 419.623 380.554 421.672 381.425 423.831
C 381.968 425.177 382.233 426.716 382.956 427.975
C 386.447 426.039 389.606 423.102 392.944 420.859
C 394.609 419.957 393.637 418.012 393.322 416.452
C 392.518 412.48 391.049 408.538 389.565 404.787
C 386.028 406.083 383.071 409.399 380.213 411.774
C 379.239 412.583 377.305 413.884 376.948 415.12
C 377.478 415.899 378.039 416.684 378.448 417.533 Z
M 402.962 485.059
C 403.703 485.731 404.71 486.9 405.633 487.222
C 408.239 486.65 410.954 486.63 413.557 486.026
C 422.43 483.967 431.346 480.84 438.627 475.229
C 440.641 473.677 442.774 472.361 444.677 470.656
C 445.306 470.093 446.428 469.473 446.555 468.586
C 444.061 467.422 441.818 465.357 439.411 463.968
C 434.632 461.209 428.905 459.023 423.502 457.892
C 421.46 457.488 420.106 459.774 418.936 461.116
C 415.978 464.509 412.365 467.475 408.676 470.037
C 405.057 472.548 400.941 474.758 396.818 476.313
C 395.773 476.708 392.446 477.313 392.265 478.463
C 395.972 480.548 399.552 482.524 402.962 485.059 Z"
opacity="1" fill="rgb(5,4,3)" fill-rule="evenodd" />
<path d="
M 306.137 458.778
C 311.169 463.599 315.645 468.643 321.755 472.21
C 324.977 474.092 328.288 475.803 331.729 477.257
C 332.795 477.707 333.976 477.759 335.022 478.224
C 335.024 478.908 332.505 479.402 332.006 479.628
C 328.882 481.041 325.998 483.171 323.361 485.354
C 323.077 484.3 322.213 484.508 321.38 484.777
C 319.132 485.118 316.197 484.287 313.987 483.818
C 306.245 482.174 299.657 478.631 292.887 474.622
C 290.529 473.225 285.7 471.048 284.666 468.33
C 285.217 467.16 287.485 466.383 288.583 465.762
C 292.414 463.595 296.755 462.148 300.918 460.76
C 302.689 460.169 304.892 460.121 306.137 458.778 Z
M 301.59 468.848
C 302.35 469.736 303.454 469.794 304.581 469.984
C 307.151 470.417 309.633 470.997 312.253 471.092
C 313.585 471.14 315.186 471.718 316.468 471.608
C 316.751 471.584 317.734 471.331 317.429 470.964
C 314.952 470.203 312.218 470.511 309.685 470.198
C 307.005 469.867 304.277 468.764 301.59 468.848 Z
M 309.414 477.475
C 310.847 478.248 312.952 478.159 314.548 478.314
C 317.764 478.625 320.915 479.225 324.167 479.336
C 325.033 479.366 328 479.917 328.625 479.423
C 329.724 478.555 328.143 477.774 327.462 477.7
C 323.466 478.239 319.273 477.877 315.22 477.518
C 313.481 477.363 311.049 476.639 309.414 477.475 Z"
opacity="1" fill="rgb(236,193,187)" fill-rule="evenodd" />
<path d="
M 311.484 435.994
C 315.437 449.251 323.732 461.937 335.091 469.959
C 339.348 472.966 343.931 475.076 348.754 477.016
C 350.193 477.595 351.757 477.799 353.19 478.338
C 353.419 478.424 354.367 478.816 354.466 479.046
C 354.556 479.258 353.615 479.625 353.454 479.658
C 352.437 479.87 351.311 479.671 350.286 479.603
C 346.48 479.35 341.304 479.221 337.974 477.101
C 337.704 476.577 337.748 475.363 337.279 475.014
C 336.163 474.184 333.896 474.026 332.57 473.562
C 329.775 472.583 327.096 470.716 324.544 469.237
C 314.802 463.591 307.627 455.57 301.712 446.106
C 300.094 443.516 298.538 440.989 297.283 438.198
C 296.758 437.033 296.228 435.932 296.482 434.622
C 300.795 433.832 305.208 434.463 309.563 434.698
C 310.01 435.058 310.801 436.779 311.484 435.994 Z
M 310.269 447.461
C 311.39 450.605 314.955 453.073 317.096 455.549
C 317.353 455.846 319.518 458.25 319.726 457.962
C 320.638 456.698 319.409 455.583 318.533 454.848
C 317.816 454.245 316.81 453.762 316.172 453.109
C 314.312 451.2 313.305 448.031 310.269 447.461 Z"
opacity="1" fill="rgb(233,192,186)" fill-rule="evenodd" />
<path d="
M 301.59 468.848
C 304.277 468.764 307.005 469.867 309.685 470.198
C 312.218 470.511 314.952 470.203 317.429 470.964
C 317.734 471.331 316.751 471.584 316.468 471.608
C 315.186 471.718 313.585 471.14 312.253 471.092
C 309.633 470.997 307.151 470.417 304.581 469.984
C 303.454 469.794 302.35 469.736 301.59 468.848 Z"
opacity="0.988" fill="rgb(206,162,157)" fill-rule="evenodd" />
<path d="
M 306.875 649.478
C 314.716 649.258 322.585 649.763 330.424 649.423
C 330.382 650.7 330.267 652.057 330.343 653.324
C 327.798 653.029 325.063 653.269 322.501 653.275
C 318.742 653.285 314.926 653.105 311.186 653.461
C 309.952 657.475 311.137 662.611 310.998 666.777
C 315.479 667.023 320.02 666.846 324.51 666.826
C 325.359 666.822 328.35 666.375 328.881 666.989
C 328.827 668.141 328.578 669.608 328.817 670.727
C 323.062 670.181 316.773 670.496 311.001 670.8
C 310.693 676.305 310.938 681.924 310.953 687.449
C 309.584 687.483 308.23 687.38 306.861 687.488
C 306.394 683.442 306.812 679.087 306.782 675.005
C 306.719 666.587 306.636 658.158 306.672 649.742
C 306.74 649.654 306.808 649.566 306.875 649.478 Z"
opacity="1" fill="rgb(130,82,46)" fill-rule="evenodd" />
<path d="
M 307.708 525.825
C 312.221 523.397 317.462 522.061 322.316 520.478
C 324.903 519.633 327.763 518.396 330.507 518.342
C 331.531 519.677 331.239 521.366 331.164 522.954
C 331.005 526.346 330.826 529.771 330.52 533.152
C 329.354 546.058 330.323 559.095 329.416 572.004
C 330.074 571.629 330.327 570.735 330.717 570.115
C 331.658 568.625 332.477 567.064 333.529 565.643
C 336.078 562.198 339.422 559.371 343.109 557.215
C 345.853 555.609 348.738 554.519 351.855 553.903
C 354.037 553.471 356.464 553.152 358.678 553.519
C 360.612 553.839 362.393 554.224 364.164 555.101
C 375.585 560.762 372.857 576.1 372.756 586.502
C 372.721 590.001 372.66 593.5 372.645 596.999
C 372.63 600.668 372.598 604.339 372.692 608.008
C 372.75 610.311 372.882 612.682 375.054 614.03
C 377.723 614.476 380.961 613.003 383.404 612.072
C 383.722 612.337 385.049 614.119 384.708 614.593
C 383.041 615.07 381.467 616.07 379.854 616.723
C 376.199 618.203 372.539 619.516 368.763 620.654
C 367.153 621.139 364.195 622.503 362.562 621.962
C 360.315 618.457 361.521 612.466 361.58 608.491
C 361.717 599.332 361.879 590.162 361.815 581.002
C 361.783 576.437 362.119 571.155 359.382 567.226
C 357.413 564.4 354.118 563.104 350.798 562.782
C 343.746 562.097 336.918 565.49 333.399 571.673
C 327.873 581.383 329.663 593.794 329.729 604.501
C 329.75 608.001 329.752 611.502 329.756 615.002
C 329.758 616.566 329.523 618.369 329.781 619.893
C 326.009 620.329 321.995 620.449 318.203 620.575
C 318.914 612.97 318.569 605.14 318.709 597.502
C 319.003 581.459 319.074 565.43 318.961 549.383
C 318.924 544.119 318.897 538.853 318.807 533.59
C 318.772 531.547 318.569 528.478 316.58 527.277
C 314.364 525.939 310.317 527.821 308.024 528.354
C 307.583 527.712 307.605 526.575 307.708 525.825 Z"
opacity="1" fill="rgb(49,91,113)" fill-rule="evenodd" />
<path d="
M 309.414 477.475
C 311.049 476.639 313.481 477.363 315.22 477.518
C 319.273 477.877 323.466 478.239 327.462 477.7
C 328.143 477.774 329.724 478.555 328.625 479.423
C 328 479.917 325.033 479.366 324.167 479.336
C 320.915 479.225 317.764 478.625 314.548 478.314
C 312.952 478.159 310.847 478.248 309.414 477.475 Z"
opacity="0.996" fill="rgb(204,162,151)" fill-rule="evenodd" />
<path d="
M 310.269 447.461
C 313.305 448.031 314.312 451.2 316.172 453.109
C 316.81 453.762 317.816 454.245 318.533 454.848
C 319.409 455.583 320.638 456.698 319.726 457.962
C 319.518 458.25 317.353 455.846 317.096 455.549
C 314.955 453.073 311.39 450.605 310.269 447.461 Z"
opacity="0.996" fill="rgb(213,166,159)" fill-rule="evenodd" />
<path d="
M 341.638 432.902
C 339.395 442.268 338.217 452.431 342.425 461.495
C 344.219 465.36 346.783 468.373 349.136 471.855
C 348.479 471.858 347.866 471.998 347.213 471.886
C 343.592 470.726 340.402 468.351 337.365 466.15
C 329.187 460.224 322.591 451.643 318.366 442.472
C 317.21 439.964 316.48 437.302 315.503 434.726
C 314.003 430.765 312.817 426.451 312.162 422.269
C 311.888 420.522 311.421 418.933 312.018 417.192
C 319.239 418.16 326.551 421.946 332.567 425.913
C 335.327 427.733 338.009 429.991 340.936 431.51
C 341.468 432 341.326 432.395 341.638 432.902 Z
M 325.716 431.17
C 326.476 433.215 327.919 434.957 329.051 436.802
C 330.939 439.88 332.815 442.992 334.772 446.031
C 335.55 447.238 336.282 448.486 337.223 449.579
C 337.345 449.721 337.986 450.599 338.296 450.452
C 338.808 450.208 338.316 449.351 338.144 449.066
C 337.427 447.878 336.388 446.887 335.641 445.705
C 333.73 442.68 331.757 439.711 329.878 436.665
C 328.666 434.701 327.577 432.557 325.716 431.17 Z
M 326.311 446.395
C 326.719 448.061 328.078 449.251 329.017 450.621
C 331.332 454.002 334.199 457.013 337.186 459.808
C 338.134 460.696 339.112 461.531 340.086 462.384
C 340.323 462.592 341.033 463.373 341.431 462.97
C 341.808 462.588 341.344 462.018 341.113 461.755
C 340.206 460.721 339.041 459.896 338.047 458.948
C 335.745 456.752 333.339 454.452 331.337 451.977
C 329.932 450.24 328.282 447.457 326.311 446.395 Z"
opacity="1" fill="rgb(236,191,186)" fill-rule="evenodd" />
<path d="
M 315.787 500.555
C 317.072 499.262 318.812 498.462 320.328 497.465
C 322.318 496.156 324.244 494.776 326.496 493.922
C 333.535 491.249 341.157 490.803 348.299 488.503
C 353.454 486.843 357.39 483.194 362.134 480.81
C 363.166 481.444 361.117 482.738 360.715 483.222
C 358.813 485.514 357.263 487.947 355.121 490.054
C 347.485 497.566 336.492 501.694 325.825 501.778
C 323.257 501.798 320.699 501.461 318.141 501.279
C 317.344 501.222 315.988 501.397 315.787 500.555 Z
M 320.284 499.519
C 322.981 500.625 326.128 500.444 328.988 500.267
C 333.786 499.969 338.12 499.357 342.619 497.907
C 344.346 497.35 345.797 495.667 347.292 494.676
C 349.191 493.418 350.686 491.829 352.503 490.473
C 353.054 490.062 354.602 489.749 354.18 488.751
C 353.809 487.876 352.693 488.276 352.089 488.536
C 350.052 489.414 347.836 489.966 345.716 490.622
C 339.207 492.637 331.767 492.796 325.6 495.75
C 323.735 496.644 321.283 497.562 320.284 499.519 Z"
opacity="1" fill="rgb(228,207,213)" fill-rule="evenodd" />
<path d="
M 316.34 497.189
C 318.639 495.125 320.064 491.749 322.078 489.359
C 325.31 485.602 329.202 482.912 333.652 480.807
C 334.948 480.194 336.442 479.268 337.898 479.194
C 340.811 479.045 343.839 480.675 346.794 480.824
C 349.042 480.938 351.283 481.174 353.532 481.261
C 354.772 481.309 356.164 481.029 357.329 481.465
C 357.465 482.172 356.503 482.487 355.991 482.741
C 354.635 483.413 353.336 484.136 351.935 484.714
C 349.688 485.64 347.525 486.714 345.166 487.363
C 341.238 488.443 337.164 488.794 333.208 489.749
C 329.15 490.728 325.336 491.971 321.636 493.94
C 320.115 494.75 319.037 496.002 317.643 496.954
C 317.296 497.191 316.602 497.669 316.34 497.189 Z"
opacity="1" fill="rgb(232,189,186)" fill-rule="evenodd" />
<path d="
M 320.284 499.519
C 321.283 497.562 323.735 496.644 325.6 495.75
C 331.767 492.796 339.207 492.637 345.716 490.622
C 347.836 489.966 350.052 489.414 352.089 488.536
C 352.693 488.276 353.809 487.876 354.18 488.751
C 354.602 489.749 353.054 490.062 352.503 490.473
C 350.686 491.829 349.191 493.418 347.292 494.676
C 345.797 495.667 344.346 497.35 342.619 497.907
C 338.12 499.357 333.786 499.969 328.988 500.267
C 326.128 500.444 322.981 500.625 320.284 499.519 Z"
opacity="1" fill="rgb(202,115,127)" fill-rule="evenodd" />
<path d="
M 325.716 431.17
C 327.577 432.557 328.666 434.701 329.878 436.665
C 331.757 439.711 333.73 442.68 335.641 445.705
C 336.388 446.887 337.427 447.878 338.144 449.066
C 338.316 449.351 338.808 450.208 338.296 450.452
C 337.986 450.599 337.345 449.721 337.223 449.579
C 336.282 448.486 335.55 447.238 334.772 446.031
C 332.815 442.992 330.939 439.88 329.051 436.802
C 327.919 434.957 326.476 433.215 325.716 431.17 Z"
opacity="1" fill="rgb(198,140,144)" fill-rule="evenodd" />
<path d="
M 326.311 446.395
C 328.282 447.457 329.932 450.24 331.337 451.977
C 333.339 454.452 335.745 456.752 338.047 458.948
C 339.041 459.896 340.206 460.721 341.113 461.755
C 341.344 462.018 341.808 462.588 341.431 462.97
C 341.033 463.373 340.323 462.592 340.086 462.384
C 339.112 461.531 338.134 460.696 337.186 459.808
C 334.199 457.013 331.332 454.002 329.017 450.621
C 328.078 449.251 326.719 448.061 326.311 446.395 Z"
opacity="1" fill="rgb(197,136,140)" fill-rule="evenodd" />
<path d="
M 348.299 416.898
C 347.111 419.465 345.769 421.95 344.643 424.548
C 344.099 425.802 343.952 427.245 343.178 428.389
C 342.735 428.505 341.823 427.24 341.473 426.941
C 339.973 425.656 338.298 424.316 336.5 423.48
C 336.185 422.304 335.372 421.252 335.185 420.052
C 334.663 416.693 336.113 411.114 337.908 408.273
C 338.979 408.26 339.859 409.194 340.717 409.76
C 342.826 411.15 344.557 413.009 346.63 414.451
C 347.297 414.914 347.871 417.049 348.299 416.898 Z"
opacity="1" fill="rgb(233,188,187)" fill-rule="evenodd" />
<path d="
M 382.198 443.492
C 381.654 444.012 381.374 444.766 381.284 445.5
C 380.709 445.463 380.982 445.497 380.463 445.408
C 379.956 444.382 379.313 445.409 378.952 446.029
C 378.059 447.563 377.929 449.525 377.351 451.19
C 376.489 453.676 376.224 456.549 375.046 458.9
C 374.174 460.639 373.338 462.434 372.336 464.102
C 371.584 465.354 370.549 466.427 370.062 467.82
C 369.599 469.145 369.169 470.633 368.233 471.707
C 368.046 471.922 367.476 472.711 367.092 472.379
C 366.554 471.914 367.074 471.04 367.277 470.552
C 367.889 469.077 368.498 467.696 368.961 466.16
C 370.838 459.937 373.023 452.797 373.227 446.265
C 373.319 443.328 373.695 440.457 373.607 437.506
C 373.591 436.986 373.824 434.016 372.877 434.877
C 372.319 439.409 373.22 444.364 372.04 448.791
C 370.947 452.891 370.396 457.16 369.123 461.224
C 368.081 464.548 366.246 467.851 365.552 471.246
C 365.493 471.629 365.376 471.998 365.609 472.351
C 365.653 472.416 366.383 473.023 366.22 473.208
C 365.552 473.965 364.507 473.687 364.122 472.918
C 363.148 469.336 363.732 465.18 363.691 461.499
C 363.61 454.147 363.504 446.796 363.358 439.445
C 363.285 435.795 363.255 432.145 363.192 428.495
C 363.169 427.16 363.176 425.819 363.134 424.486
C 363.105 423.578 362.776 423.003 362.619 424.519
C 361.544 427.616 362.231 431.743 362.244 434.998
C 362.274 442.693 362.475 450.39 362.576 458.085
C 362.629 462.108 362.619 466.115 362.446 470.134
C 362.419 470.757 362.855 474.681 361.632 473.813
C 361.111 473.443 361.425 472.264 361.214 471.717
C 360.524 469.928 359.543 468.251 359.007 466.407
C 356.884 459.109 354.592 452.152 353.874 444.521
C 353.643 442.072 353.695 439.551 353.765 437.095
C 353.788 436.303 354.169 435.057 353.372 434.57
C 351.778 442.471 353.046 452.012 355.829 459.532
C 356.774 462.087 357.077 464.844 358.014 467.397
C 358.492 468.698 359.476 469.858 359.915 471.127
C 360.162 471.841 359.613 472.16 358.994 472.005
C 357.554 471.643 356.876 468.349 356.17 467.185
C 353.059 462.059 350.344 457.124 349.252 451.084
C 348.903 449.153 348.586 447.216 348.255 445.284
C 348.148 444.663 348.218 443.645 347.57 443.39
C 346.357 444.701 347.891 447.95 348.123 449.618
C 349.128 456.839 353.136 462.928 354.568 469.946
C 351.227 467.948 348.734 464.228 347.008 460.824
C 339.51 446.032 346.155 429.156 353.975 416.007
C 356.072 412.481 358.03 408.891 360.554 405.641
C 361.291 404.691 361.977 403.336 363.004 402.723
C 363.873 403.076 364.061 403.878 364.668 404.554
C 366.666 406.778 368.313 409.556 369.902 412.089
C 371.106 414.007 372.562 415.781 373.694 417.741
C 378.1 425.37 381.318 434.722 382.198 443.492 Z"
opacity="1" fill="rgb(239,190,185)" fill-rule="evenodd" />
<path d="
M 380.463 445.408
C 380.133 447.455 379.142 449.538 378.474 451.509
C 376.974 455.934 375.326 460.108 373.496 464.397
C 373.155 465.197 372.674 466.112 372.522 466.972
C 372.357 467.9 372.842 469.012 372.328 469.833
C 370.192 472.127 366.267 475.621 362.965 475.768
C 361.736 475.823 360.223 474.891 359.225 474.255
C 357.411 473.099 356.352 471.086 354.568 469.946
C 353.136 462.928 349.128 456.839 348.123 449.618
C 347.891 447.95 346.357 444.701 347.57 443.39
C 348.218 443.645 348.148 444.663 348.255 445.284
C 348.586 447.216 348.903 449.153 349.252 451.084
C 350.344 457.124 353.059 462.059 356.17 467.185
C 356.876 468.349 357.554 471.643 358.994 472.005
C 359.613 472.16 360.162 471.841 359.915 471.127
C 359.476 469.858 358.492 468.698 358.014 467.397
C 357.077 464.844 356.774 462.087 355.829 459.532
C 353.046 452.012 351.778 442.471 353.372 434.57
C 354.169 435.057 353.788 436.303 353.765 437.095
C 353.695 439.551 353.643 442.072 353.874 444.521
C 354.592 452.152 356.884 459.109 359.007 466.407
C 359.543 468.251 360.524 469.928 361.214 471.717
C 361.425 472.264 361.111 473.443 361.632 473.813
C 362.855 474.681 362.419 470.757 362.446 470.134
C 362.619 466.115 362.629 462.108 362.576 458.085
C 362.475 450.39 362.274 442.693 362.244 434.998
C 362.231 431.743 361.544 427.616 362.619 424.519
C 362.776 423.003 363.105 423.578 363.134 424.486
C 363.176 425.819 363.169 427.16 363.192 428.495
C 363.255 432.145 363.285 435.795 363.358 439.445
C 363.504 446.796 363.61 454.147 363.691 461.499
C 363.732 465.18 363.148 469.336 364.122 472.918
C 364.507 473.687 365.552 473.965 366.22 473.208
C 366.383 473.023 365.653 472.416 365.609 472.351
C 365.376 471.998 365.493 471.629 365.552 471.246
C 366.246 467.851 368.081 464.548 369.123 461.224
C 370.396 457.16 370.947 452.891 372.04 448.791
C 373.22 444.364 372.319 439.409 372.877 434.877
C 373.824 434.016 373.591 436.986 373.607 437.506
C 373.695 440.457 373.319 443.328 373.227 446.265
C 373.023 452.797 370.838 459.937 368.961 466.16
C 368.498 467.696 367.889 469.077 367.277 470.552
C 367.074 471.04 366.554 471.914 367.092 472.379
C 367.476 472.711 368.046 471.922 368.233 471.707
C 369.169 470.633 369.599 469.145 370.062 467.82
C 370.549 466.427 371.584 465.354 372.336 464.102
C 373.338 462.434 374.174 460.639 375.046 458.9
C 376.224 456.549 376.489 453.676 377.351 451.19
C 377.929 449.525 378.059 447.563 378.952 446.029
C 379.313 445.409 379.956 444.382 380.463 445.408 Z"
opacity="0.996" fill="rgb(207,150,149)" fill-rule="evenodd" />
<path d="
M 347.334 649.792
C 347.847 649.393 351.057 649.404 351.607 649.791
C 352.049 654.611 351.576 659.65 351.585 664.496
C 351.598 670.866 352.033 677.325 351.694 683.685
C 357.544 683.656 363.819 683.057 369.628 683.734
C 369.635 684.702 369.238 686.829 369.654 687.606
C 362.428 687.782 355.122 687.048 347.887 687.489
C 347.347 686.64 347.552 685.477 347.552 684.494
C 347.551 682.015 347.544 679.537 347.542 677.058
C 347.536 668.069 348.024 658.747 347.334 649.792 Z"
opacity="1" fill="rgb(132,82,44)" fill-rule="evenodd" />
<path d="
M 355.957 281.089
C 356.283 279.86 356.708 278.667 357.522 277.67
C 358.072 276.996 358.77 276.445 359.535 276.035
C 364.975 273.118 369.513 278.255 369.42 283.509
C 369.386 285.401 369.065 286.974 368.325 288.711
C 368.088 289.268 367.803 290.389 367.064 290.042
C 366.855 288.79 367.585 287.674 367.755 286.449
C 368.229 283.026 367.627 278.915 363.962 277.676
C 358.429 277.603 357.776 284.653 359.28 288.56
C 360.041 290.536 361.289 292.123 362.54 293.805
C 362.772 294.116 364.399 296.202 364.019 296.366
C 362.209 295.885 360.718 294.004 359.6 292.6
C 356.856 289.153 355.061 285.62 355.957 281.089 Z"
opacity="0.996" fill="rgb(29,26,28)" fill-rule="evenodd" />
<path d="
M 359.952 283.603
C 360.424 281.969 361.104 280.163 362.855 279.577
C 367.098 280.18 366.455 287.573 364.377 290.042
C 361.504 291.268 359.817 285.516 359.952 283.603 Z"
opacity="1" fill="rgb(220,183,146)" fill-rule="evenodd" />
<path d="
M 362.493 316.609
C 363.293 312.042 364.194 307.546 365.953 303.228
C 371.592 289.393 383.592 277.281 397.604 271.975
C 401.701 270.424 406.046 269.418 410.376 268.806
C 413.901 268.308 417.753 268.404 420.886 266.488
C 422.84 265.293 424.783 262.506 423.57 260.19
C 421.019 255.322 416.346 252.194 414.481 246.794
C 411.424 237.94 411.734 224.495 422.014 220.586
C 423.605 219.981 425.269 219.628 426.969 219.529
C 428.851 219.419 430.653 219.546 432.461 220.13
C 443.84 223.8 448.16 238.172 447.199 248.96
C 446.595 255.741 444.009 262.088 444.88 268.998
C 445.518 274.058 447.689 278.642 449.18 283.471
C 451.129 289.78 452.315 296.451 451.896 303.076
C 451.276 312.886 448.087 322.14 445.438 331.53
C 442.896 340.543 441.362 349.906 441.704 359.293
C 442.438 379.508 452.985 397.645 453.807 417.803
C 454.37 431.599 450.43 447.452 436.219 452.956
C 434.103 453.776 432.147 453.851 429.908 453.808
C 429.387 452.742 431.382 451.454 432.142 451.06
C 435.513 449.313 438.851 448.365 441.758 445.755
C 447.732 440.39 450.205 431.882 450.715 424.092
C 452.163 401.975 439.728 382.118 438.715 360.252
C 438.273 350.732 439.533 340.783 442.216 331.639
C 444.984 322.21 448.441 312.389 448.73 302.479
C 448.895 296.841 448.131 291.067 446.628 285.633
C 444.989 279.706 442.177 274.174 441.724 267.952
C 441.319 262.388 443.08 257.276 443.912 251.864
C 444.713 246.657 444.535 241.315 442.779 236.316
C 440.183 228.927 434.77 221.171 425.899 222.68
C 424.36 222.942 422.898 223.379 421.57 224.228
C 413.423 229.436 415.19 242.746 419.22 250.006
C 421.861 254.765 426.649 259.452 423.445 265.142
C 420.16 270.977 410.82 271.484 405.055 272.964
C 395.895 275.316 386.982 280.288 380.321 287.055
C 376.907 290.576 373.887 294.554 371.498 298.848
C 367.227 306.523 364.903 315.401 365.336 324.206
C 365.758 332.778 368.714 340.715 371.667 348.662
C 374.428 356.09 377.219 363.496 379.917 370.949
C 382.303 377.539 384.17 384.338 385.824 391.147
C 386.331 393.233 387.965 396.717 387.611 398.811
C 387.226 399.634 385.978 400.658 385.086 400.841
C 383.592 398.599 383.669 394.708 383.019 392.125
C 381.643 386.654 379.93 381.244 378.31 375.843
C 375.361 366.01 371.414 356.255 367.645 346.713
C 363.908 337.252 361.098 326.864 362.493 316.609 Z"
opacity="1" fill="rgb(9,10,10)" fill-rule="evenodd" />
<path d="
M 363.907 265.091
C 364.802 260.508 369.867 256.832 374.398 259.594
C 377.518 261.495 379.277 265.043 379.609 268.569
C 379.768 270.257 379.573 272.051 379.257 273.717
C 379.1 274.544 378.977 275.546 377.953 275.496
C 377.309 274.018 377.708 272.089 377.666 270.499
C 377.596 267.778 376.908 265.455 375.151 263.325
C 371.256 258.605 365.983 262.798 366.326 267.978
C 366.527 271.018 368.67 273.17 370.943 274.954
C 371.367 275.287 373.047 276.492 372.401 277.132
C 371.098 277.27 369.826 275.854 368.84 275.167
C 365.398 272.766 363.173 269.434 363.907 265.091 Z"
opacity="1" fill="rgb(15,14,16)" fill-rule="evenodd" />
<path d="
M 367.941 266.612
C 368.05 266.043 368.209 265.379 368.465 264.859
C 369.398 262.954 371.756 262.687 373.402 263.832
C 375.947 265.604 377.135 271.107 374.235 273.098
C 370.735 273.964 367.75 269.666 367.941 266.612 Z"
opacity="1" fill="rgb(219,183,146)" fill-rule="evenodd" />
<path d="
M 368.256 480.392
C 369.481 480.249 370.766 480.728 372.004 480.806
C 374.735 480.977 377.703 480.929 380.422 480.618
C 383.36 480.283 387.065 478.589 389.997 479.297
C 395.404 480.605 400.581 484.777 404.41 488.6
C 406.312 490.499 407.701 492.565 409.389 494.62
C 410.004 495.368 411.347 496.39 411.426 497.4
C 410.081 497.308 408.814 496.006 407.662 495.373
C 405.22 494.03 402.729 492.678 400.127 491.673
C 392.494 488.724 384.173 488.34 376.539 485.214
C 374.154 484.237 369.687 482.586 368.256 480.392 Z"
opacity="1" fill="rgb(238,190,193)" fill-rule="evenodd" />
<path d="
M 369.423 317.088
C 370.269 312.591 371.164 308.16 373.116 303.979
C 378.744 291.926 389.386 282.649 401.93 278.269
C 406.74 276.589 411.752 275.821 416.77 275.055
C 421.58 274.32 426.41 273.688 431.281 273.631
C 433.154 273.61 435.851 273.423 437.498 274.453
C 439.109 275.46 439.904 277.357 440.62 279.027
C 441.974 282.187 443.377 285.446 444.153 288.803
C 444.998 292.459 445.764 296.482 445.321 300.259
C 444.973 303.219 442.523 305.98 441.037 308.459
C 436.461 316.089 429.482 322.215 421.261 325.719
C 415.177 328.311 408.844 329.922 402.584 331.99
C 395.716 334.26 388.826 337.162 383.533 342.232
C 381.732 343.956 380.069 345.796 378.5 347.732
C 378.074 348.258 376.451 350.905 376.267 350.723
C 372.574 339.662 367.612 329.14 369.423 317.088 Z"
opacity="1" fill="rgb(145,184,192)" fill-rule="evenodd" />
<path d="
M 371.473 487.334
C 373 487.311 374.426 488.235 375.844 488.72
C 377.975 489.449 380.1 490.132 382.283 490.695
C 388.568 492.315 395.154 493.01 401.179 495.539
C 403.504 496.516 405.429 498.146 407.573 499.443
C 408.686 500.796 405.716 500.35 404.989 500.387
C 401.928 500.543 399.267 500.532 396.188 500.165
C 389.311 499.346 381.956 497.078 376.443 492.778
C 374.828 491.519 371.452 489.594 371.473 487.334 Z"
opacity="1" fill="rgb(198,108,115)" fill-rule="evenodd" />
<path d="
M 380.463 445.408
C 380.982 445.497 380.709 445.463 381.284 445.5
C 382.285 447.126 380.878 448.945 382.305 450.979
C 381.756 457.863 377.556 465.393 372.328 469.833
C 372.842 469.012 372.357 467.9 372.522 466.972
C 372.674 466.112 373.155 465.197 373.496 464.397
C 375.326 460.108 376.974 455.934 378.474 451.509
C 379.142 449.538 380.133 447.455 380.463 445.408 Z"
opacity="1" fill="rgb(237,184,177)" fill-rule="evenodd" />
<path d="
M 374.407 250.582
C 376.02 244.13 383.271 241.528 388.297 246.293
C 391.179 249.025 391.71 252.694 392.034 256.409
C 392.21 258.424 392.092 260.858 391.742 262.847
C 391.617 263.554 391.571 264.711 390.55 264.393
C 389.179 258.959 390.891 252.978 386.994 248.179
C 382.866 243.094 376.328 248.808 376.834 254.019
C 377.179 257.576 379.771 260.173 382.053 262.674
C 382.961 263.671 384.477 264.87 384.768 266.247
C 383.369 266.535 381.444 264.493 380.46 263.721
C 376.707 260.775 373.108 255.571 374.407 250.582 Z"
opacity="0.996" fill="rgb(12,11,12)" fill-rule="evenodd" />
<path d="
M 377.499 354.103
C 377.762 352.464 379.471 350.598 380.527 349.347
C 391.542 335.315 409.416 334.879 424.291 327.549
C 429.218 325.121 434.142 321.867 437.824 317.74
C 440.123 315.164 441.913 311.545 444.515 309.346
C 444.835 309.93 444.347 310.764 444.154 311.323
C 443.702 312.627 443.475 313.991 443.155 315.329
C 442.205 319.304 440.875 323.181 439.716 327.097
C 439.022 329.444 438.607 331.969 437.623 334.215
C 436.399 335.461 434.496 336.252 432.918 336.957
C 429.815 338.341 426.711 339.671 423.541 340.892
C 415.928 343.824 408.207 347.211 401.87 352.473
C 396.597 356.852 391.832 361.816 388.484 367.856
C 387.511 369.61 386.34 371.455 385.838 373.415
C 385.678 374.041 385.696 375.411 385.003 375.594
C 383.653 370.407 381.601 365.215 379.696 360.198
C 378.932 358.187 377.849 356.244 377.499 354.103 Z"
opacity="1" fill="rgb(76,115,133)" fill-rule="evenodd" />
<path d="
M 378.448 417.533
C 378.808 417.386 379.266 416.14 379.426 415.738
C 379.821 414.779 380.775 413.977 381.499 413.243
C 383.274 411.443 385.6 409.109 388.143 408.537
C 389.081 409.134 389.173 410.477 389.488 411.472
C 390.205 413.743 390.691 416.168 391.484 418.401
C 391.767 419.198 393.161 419.97 392.944 420.859
C 389.606 423.102 386.447 426.039 382.956 427.975
C 382.233 426.716 381.968 425.177 381.425 423.831
C 380.554 421.672 379.467 419.623 378.448 417.533 Z"
opacity="1" fill="rgb(233,188,185)" fill-rule="evenodd" />
<path d="
M 378.897 253.062
C 380.038 249.328 383.458 247.414 386.11 251.078
C 388.136 253.878 388.48 258.524 386.348 261.284
C 382.315 262.188 378.326 256.574 378.897 253.062 Z"
opacity="1" fill="rgb(217,177,136)" fill-rule="evenodd" />
<path d="
M 384.305 432.047
C 385.168 431.834 385.732 430.775 386.394 430.229
C 387.56 429.269 388.839 428.454 390.131 427.675
C 396.021 424.121 401.719 420.638 408.314 418.529
C 410.052 417.974 413.228 416.056 415.043 416.745
C 415.395 417.651 414.861 418.549 414.749 419.456
C 414.397 422.323 413.534 425.162 412.807 427.955
C 409.709 439.854 403.845 452.556 394.689 461.023
C 391.219 464.231 387.477 467.398 383.333 469.708
C 382.051 470.422 379.506 471.677 378.701 469.791
C 380.059 467.368 382.049 465.344 383.214 462.777
C 387.748 452.789 386.988 442.379 384.305 432.047 Z
M 387.585 460.144
C 387.565 460.394 387.51 461.004 387.728 460.881
C 389.223 460.042 390.754 457.577 391.961 456.302
C 393.697 454.467 395.293 452.509 396.984 450.636
C 398.03 449.478 399.151 448.817 399.374 447.222
C 397.832 448.025 396.457 450.011 395.291 451.307
C 392.671 454.218 389.947 457.014 387.585 460.144 Z
M 388.501 448.624
C 388.473 448.818 388.446 449.013 388.418 449.207
C 388.997 449.615 391.039 446.241 391.429 445.727
C 393.91 442.456 396.094 438.894 398.326 435.447
C 398.662 434.929 400.56 432.747 400.158 432.169
C 398.171 433.261 397.162 435.795 395.917 437.601
C 393.431 441.207 390.719 444.862 388.501 448.624 Z"
opacity="1" fill="rgb(236,189,185)" fill-rule="evenodd" />
<path d="
M 382.198 443.492
C 382.408 446.079 382.469 448.379 382.305 450.979
C 380.878 448.945 382.285 447.126 381.284 445.5
C 381.374 444.766 381.654 444.012 382.198 443.492 Z"
opacity="0.996" fill="rgb(207,150,149)" fill-rule="evenodd" />
<path d="
M 385.551 649.645
C 390.439 649.366 395.392 649.582 400.291 649.573
C 403.279 649.567 406.616 649.187 409.559 649.72
C 409.522 650.195 409.924 653.267 409.557 653.37
C 403.123 653.399 396.509 652.952 390.106 653.539
C 389.604 654.794 389.83 656.422 389.828 657.755
C 389.824 660.531 389.414 663.64 389.851 666.377
C 395.671 665.734 401.869 666.295 407.728 666.272
C 408.125 667.479 407.604 668.896 407.773 670.132
C 401.849 669.983 395.648 669.742 389.74 670.219
C 389.847 673.379 389.729 676.56 389.72 679.723
C 389.717 680.801 389.359 682.932 389.835 683.87
C 396.459 683.154 403.273 684.17 409.916 683.741
C 409.869 684.725 410.392 686.905 409.891 687.736
C 401.97 687.069 393.598 687.32 385.657 687.653
C 385.177 675.002 385.836 662.304 385.551 649.645 Z"
opacity="1" fill="rgb(132,82,43)" fill-rule="evenodd" />
<path d="
M 386.367 378.551
C 387.008 376.235 388.284 374.108 389.429 372.015
C 392.146 367.049 395.305 362.274 399.494 358.406
C 407.42 350.691 417.486 346.517 427.577 342.495
C 429.625 341.679 431.699 340.852 433.631 339.779
C 434.568 339.258 435.901 338.296 436.963 338.283
C 436.401 341.673 435.455 344.979 435.157 348.442
C 434.907 351.348 435.259 354.444 434.797 357.303
C 431.515 359.03 428.154 360.452 424.987 362.418
C 416.374 367.763 409.124 375.444 403.224 383.602
C 400.085 387.942 397.818 392.796 396.108 397.853
C 395.717 399.008 395.226 400.146 394.772 401.279
C 394.679 401.512 394.439 402.418 394.125 402.418
C 393.307 401.097 392.151 400.003 391.522 398.57
C 389.791 394.626 389.179 390.141 388.01 386.007
C 387.341 383.643 386.091 381.045 386.367 378.551 Z"
opacity="1" fill="rgb(153,190,198)" fill-rule="evenodd" />
<path d="
M 387.585 460.144
C 389.947 457.014 392.671 454.218 395.291 451.307
C 396.457 450.011 397.832 448.025 399.374 447.222
C 399.151 448.817 398.03 449.478 396.984 450.636
C 395.293 452.509 393.697 454.467 391.961 456.302
C 390.754 457.577 389.223 460.042 387.728 460.881
C 387.51 461.004 387.565 460.394 387.585 460.144 Z"
opacity="1" fill="rgb(213,168,164)" fill-rule="evenodd" />
<path d="
M 387.403 472.864
C 389.738 471.71 391.664 469.442 393.66 467.786
C 400.895 461.784 406.244 455.612 410.263 447.047
C 411.458 444.5 412.58 441.929 413.519 439.274
C 414.027 437.84 414.258 436.14 415.082 434.847
C 415.582 435.459 418.795 434.548 419.614 434.374
C 422.1 433.849 425.028 433.973 427.555 434.098
C 428.528 434.146 429.779 434.099 430.584 434.699
C 430.886 435.796 430.067 436.915 429.7 437.904
C 428.513 441.094 426.69 443.966 424.85 446.81
C 421.693 451.691 418.273 456.273 414.04 460.286
C 411.098 463.075 407.254 465.404 403.818 467.54
C 400.188 469.797 396.258 472.138 391.959 472.769
C 391.082 472.854 387.939 473.615 387.403 472.864 Z"
opacity="1" fill="rgb(236,186,183)" fill-rule="evenodd" />
<path d="
M 388.501 448.624
C 390.719 444.862 393.431 441.207 395.917 437.601
C 397.162 435.795 398.171 433.261 400.158 432.169
C 400.56 432.747 398.662 434.929 398.326 435.447
C 396.094 438.894 393.91 442.456 391.429 445.727
C 391.039 446.241 388.997 449.615 388.418 449.207
C 388.446 449.013 388.473 448.818 388.501 448.624 Z"
opacity="1" fill="rgb(210,163,160)" fill-rule="evenodd" />
<path d="
M 389.467 585.6
C 390.47 580.249 391.704 575.304 394.437 570.522
C 401.491 558.177 415.308 551.1 429.505 553.61
C 433.152 554.255 436.908 555.875 439.47 558.622
C 443.518 562.963 444.785 569.966 440.353 574.524
C 437.726 577.224 433.95 578.591 430.467 579.772
C 424.29 581.867 417.779 583.336 411.35 584.43
C 408.723 584.877 406.046 585.214 403.399 585.526
C 402.67 585.612 401.013 585.493 400.485 585.926
C 401.013 593.152 403.298 600.783 408.54 606.014
C 418.094 615.55 434.763 614.555 442.912 603.708
C 443.745 604.066 444.788 604.715 445.264 605.508
C 444.231 608.254 441.455 610.931 439.407 612.962
C 429.638 622.654 414.428 624.975 402.647 617.48
C 392.181 610.821 387.906 597.484 389.467 585.6 Z
M 400.49 581.12
C 400.476 581.588 400.428 582.025 400.52 582.484
C 406.611 581.39 412.727 580.884 418.744 579.318
C 421.639 578.564 424.813 577.863 427.279 576.074
C 433.464 571.585 430.267 560.775 423.903 558.216
C 422.207 557.533 420.335 557.32 418.517 557.315
C 408.848 557.29 403.071 566.693 401.202 575.112
C 400.759 577.108 400.785 579.111 400.49 581.12 Z"
opacity="1" fill="rgb(49,91,115)" fill-rule="evenodd" />
<path d="
M 390.902 240.575
C 392.352 232.733 402.103 230.796 407.21 236.467
C 410.689 240.331 411.754 245.268 411.262 250.344
C 411.063 252.388 410.433 254.384 410.314 256.44
C 410.233 257.839 410.182 259.276 410.565 260.639
C 410.739 261.258 411.403 262.395 411.132 263.015
C 407.947 260.795 408.331 255.8 408.622 252.49
C 409.062 247.483 408.641 240.783 404.517 237.243
C 401.313 234.493 396.181 235.514 394.274 239.358
C 393.04 241.847 393.219 244.796 394.211 247.32
C 395.215 249.876 396.974 252.145 398.618 254.32
C 399.452 255.423 400.777 256.997 400.875 258.419
C 399.514 258.481 397.891 256.178 396.986 255.312
C 392.995 251.493 389.505 246.359 390.902 240.575 Z"
opacity="1" fill="rgb(13,12,14)" fill-rule="evenodd" />
<path d="
M 423.502 457.892
C 422.894 458.183 422.509 458.612 422.458 459.301
C 424.758 460.89 428.001 461.346 430.631 462.235
C 433.14 463.083 435.433 464.386 437.716 465.708
C 438.655 466.252 442.159 468.265 441.856 469.431
C 440.039 472.004 436.553 473.941 433.835 475.414
C 427.913 478.623 421.605 481.845 414.917 483.078
C 412.644 483.497 410.265 483.794 407.955 483.883
C 406.799 483.928 405.182 483.681 404.084 483.957
C 403.49 484.105 403.411 484.719 402.962 485.059
C 399.552 482.524 395.972 480.548 392.265 478.463
C 392.446 477.313 395.773 476.708 396.818 476.313
C 400.941 474.758 405.057 472.548 408.676 470.037
C 412.365 467.475 415.978 464.509 418.936 461.116
C 420.106 459.774 421.46 457.488 423.502 457.892 Z
M 397.942 477.815
C 397.872 478.226 397.651 479.046 398.223 479.167
C 399.273 479.391 401.128 478.24 402.377 478.192
C 406.76 478.024 411.15 477.942 415.535 477.784
C 416.914 477.734 418.317 477.74 419.688 477.581
C 420.041 477.54 420.898 477.461 420.96 476.995
C 419.164 476.228 416.408 476.753 414.501 476.804
C 409.199 476.947 403.104 476.569 397.942 477.815 Z
M 410.964 470.375
C 411.737 471.015 413.216 470.626 414.144 470.536
C 417.011 470.259 419.967 470.325 422.808 469.938
C 423.279 469.874 426.146 469.662 426.218 469.369
C 425.567 468.813 423.668 469.381 422.788 469.336
C 420.332 469.212 417.892 469.467 415.458 469.733
C 413.876 469.905 412.433 469.6 410.964 470.375 Z"
opacity="1" fill="rgb(237,192,188)" fill-rule="evenodd" />
<path d="
M 395.469 243.612
C 395.405 239.784 399.659 235.868 403.05 239.146
C 405.762 241.768 406.228 246.299 406.245 249.844
C 406.264 253.575 403.118 254.03 400.339 252.239
C 397.541 250.436 395.524 246.95 395.469 243.612 Z"
opacity="1" fill="rgb(220,177,137)" fill-rule="evenodd" />
<path d="
M 396.375 404.541
C 398.162 399.851 399.818 395.046 402.255 390.638
C 407.2 381.694 414.369 373.653 422.718 367.762
C 425.633 365.706 428.585 363.806 431.692 362.047
C 432.34 361.681 434.285 360.381 434.915 360.808
C 435.716 370.377 438.005 379.718 440.597 388.935
C 443.996 401.018 447.782 412.593 446.679 425.343
C 446.16 431.35 444.137 437.19 440.025 441.661
C 439.191 442.568 436.16 445.578 434.816 444.608
C 436.173 440.812 438.382 437.514 439.311 433.481
C 439.634 432.077 440.087 430.108 439.125 428.849
C 438.049 427.442 435.539 427.461 433.95 427.311
C 429.673 426.909 425.258 427.222 421.022 426.678
C 421.692 420.347 423.432 414.435 423.223 408.008
C 420.951 407.722 418.685 408.283 416.45 408.656
C 412.702 409.282 408.991 409.93 405.35 411.042
C 403.554 411.591 401.807 412.254 400.055 412.927
C 399.363 413.194 398.585 413.777 397.834 413.604
C 397.089 410.82 395.62 407.429 396.375 404.541 Z"
opacity="1" fill="rgb(67,110,134)" fill-rule="evenodd" />
<path d="
M 397.942 477.815
C 403.104 476.569 409.199 476.947 414.501 476.804
C 416.408 476.753 419.164 476.228 420.96 476.995
C 420.898 477.461 420.041 477.54 419.688 477.581
C 418.317 477.74 416.914 477.734 415.535 477.784
C 411.15 477.942 406.76 478.024 402.377 478.192
C 401.128 478.24 399.273 479.391 398.223 479.167
C 397.651 479.046 397.872 478.226 397.942 477.815 Z"
opacity="0.992" fill="rgb(199,155,147)" fill-rule="evenodd" />
<path d="
M 410.964 470.375
C 412.433 469.6 413.876 469.905 415.458 469.733
C 417.892 469.467 420.332 469.212 422.788 469.336
C 423.668 469.381 425.567 468.813 426.218 469.369
C 426.146 469.662 423.279 469.874 422.808 469.938
C 419.967 470.325 417.011 470.259 414.144 470.536
C 413.216 470.626 411.737 471.015 410.964 470.375 Z"
opacity="0.992" fill="rgb(207,164,153)" fill-rule="evenodd" />
<path d="
M 419.43 232.567
C 421.558 225.147 430.162 223.53 435.401 228.971
C 440.721 234.494 442.853 244.531 440.625 251.828
C 440.111 253.513 439.044 256.056 437.215 256.71
C 433.858 257.911 428.82 255.477 426.212 253.46
C 420.449 249 417.404 239.631 419.43 232.567 Z"
opacity="1" fill="rgb(219,168,127)" fill-rule="evenodd" />
<path d="
M 424.888 488.698
C 426.456 494.335 433.5 497.347 438.533 499.049
C 449.83 502.868 462.431 502.159 473.888 499.583
C 478.266 498.598 484.345 496.901 487.454 493.436
C 488.453 492.866 489.061 491.875 489.678 490.938
C 493.629 484.944 488.976 478.73 483.153 476.182
C 481.551 475.012 479.458 474.31 477.585 473.707
C 472.206 471.977 466.68 471.003 461.014 470.78
C 458.454 470.679 455.154 471.244 452.738 470.431
C 453.111 468.791 454.675 469.099 456.108 469.128
C 459.019 469.186 461.95 469.283 464.844 469.624
C 472.593 470.536 480.954 472.314 487.415 476.923
C 490.801 479.337 493.965 483.666 492.918 488.071
C 492.466 489.973 491.27 491.638 490.078 493.156
C 487.157 496.877 482.327 498.444 478.064 499.978
C 466.49 504.143 453.383 504.01 441.482 501.465
C 436.365 500.37 431.046 498.235 427.243 494.548
C 426.107 493.448 424.843 492.287 424.048 490.905
C 423.897 490.642 423.142 489.293 423.547 489.005
C 423.921 488.74 424.443 488.807 424.888 488.698 Z"
opacity="1" fill="rgb(1,1,1)" fill-rule="evenodd" />
<path d="
M 424.337 687.153
C 427.016 682.515 430.196 678.044 433.212 673.613
C 434.39 671.883 436.297 669.977 436.975 667.993
C 436.169 666.018 434.497 664.139 433.305 662.362
C 430.497 658.178 427.518 654.04 424.926 649.722
C 426.5 649.743 428.067 649.617 429.644 649.64
C 432.303 653.308 434.639 657.207 437.218 660.932
C 437.86 661.858 438.518 662.78 439.116 663.734
C 439.26 663.964 439.623 664.893 439.874 664.985
C 442.673 659.889 445.959 654.5 449.598 649.958
C 451.094 649.732 452.916 649.62 454.409 649.923
C 453.609 651.832 451.785 653.685 450.608 655.419
C 448.781 658.11 447.038 660.855 445.194 663.537
C 444.247 664.915 442.521 666.412 442.034 667.997
C 445.849 672.639 449.065 677.952 452.344 682.986
C 453.151 684.225 453.988 685.439 454.776 686.69
C 454.9 686.887 455.544 687.51 455.481 687.694
C 453.908 687.767 452.308 687.573 450.728 687.618
C 449.332 686.791 448.069 683.91 447.155 682.517
C 444.656 678.707 442.149 674.845 439.434 671.198
C 436.561 675.078 434.28 679.501 431.571 683.517
C 430.744 684.744 429.926 686.696 428.773 687.606
C 427.257 687.763 425.711 687.424 424.196 687.584
C 424.243 687.441 424.29 687.297 424.337 687.153 Z"
opacity="1" fill="rgb(134,84,46)" fill-rule="evenodd" />
<path d="
M 424.888 488.698
C 428.519 487.009 432.348 485.72 435.888 483.823
C 437.867 485.762 439.304 487.925 441.715 489.494
C 450.55 495.247 463.482 496.511 473.683 495.021
C 477.016 494.534 480.381 493.671 483.32 491.98
C 484.203 491.471 486.264 489.463 487.247 489.796
C 486.946 490.811 485.73 493.163 487.454 493.436
C 484.345 496.901 478.266 498.598 473.888 499.583
C 462.431 502.159 449.83 502.868 438.533 499.049
C 433.5 497.347 426.456 494.335 424.888 488.698 Z"
opacity="1" fill="rgb(133,105,72)" fill-rule="evenodd" />
<path d="
M 435.888 483.823
C 441.115 480.976 445.98 477.014 450.166 472.807
C 450.823 472.16 451.811 470.562 452.738 470.431
C 455.154 471.244 458.454 470.679 461.014 470.78
C 466.68 471.003 472.206 471.977 477.585 473.707
C 479.458 474.31 481.551 475.012 483.153 476.182
C 483.337 478.581 485.444 479.091 486.925 480.747
C 488.873 482.926 489.075 487.438 487.247 489.796
C 486.264 489.463 484.203 491.471 483.32 491.98
C 480.381 493.671 477.016 494.534 473.683 495.021
C 463.482 496.511 450.55 495.247 441.715 489.494
C 439.304 487.925 437.867 485.762 435.888 483.823 Z"
opacity="1" fill="rgb(165,140,106)" fill-rule="evenodd" />
<path d="
M 449.365 560.968
C 453.844 557.756 460.238 556.203 465.377 554.303
C 467.109 553.662 469.895 552.116 471.324 553.989
C 472.714 555.81 472.209 558.715 472.18 560.873
C 472.107 566.241 471.686 571.642 471.952 577.007
C 472.753 576.8 472.838 575.27 473.113 574.606
C 473.995 572.483 474.895 570.416 475.973 568.378
C 479.188 562.301 485.032 553.954 492.568 553.311
C 496.775 552.952 504.444 555.47 503.841 560.788
C 503.517 563.636 501.649 566.795 500.019 569.102
C 499.272 570.159 497.944 570.813 496.637 570.383
C 494.665 568.789 493.437 566.592 490.984 565.568
C 483.995 562.651 479.731 567.822 476.866 573.482
C 471.374 584.335 472.108 596.187 472.14 608.001
C 472.147 610.834 472.15 613.669 472.185 616.502
C 472.198 617.586 471.972 619.053 472.243 620.087
C 468.463 620.298 464.599 619.899 460.845 620.523
C 460.416 606.24 461.339 591.798 461.391 577.497
C 461.403 574.252 461.513 570.982 461.32 567.741
C 461.201 565.729 461 563.749 459.292 562.415
C 456.699 560.389 452.77 563.062 450.005 563.41
C 449.493 562.691 449.259 561.845 449.365 560.968 Z"
opacity="1" fill="rgb(48,90,113)" fill-rule="evenodd" />
<path d="
M 463.477 426.613
C 466.475 407.617 474.914 389.818 475.183 370.351
C 475.287 362.778 474.051 354.967 472.096 347.666
C 469.426 337.689 465.564 328.023 464.809 317.628
C 464.324 310.961 465.08 304.025 467.185 297.669
C 468.699 293.1 470.814 288.661 471.554 283.868
C 472.545 277.456 470.382 271.558 469.312 265.33
C 467.753 256.25 470.038 244.116 477.502 237.976
C 483.444 233.088 492.91 232.566 498.538 238.282
C 501.066 240.85 502.337 244.543 502.847 248.043
C 503.751 254.256 502.139 261.002 498.546 266.156
C 495.993 269.818 489.294 273.834 493.386 278.827
C 496.196 282.254 501.99 282.085 506.011 282.449
C 511.777 282.971 517.758 284.586 522.956 287.143
C 539.928 295.494 553.68 312.859 554.334 332.276
C 554.686 342.709 551.562 352.863 547.836 362.494
C 541.842 377.653 536.285 392.999 532.884 408.974
C 529.263 425.979 527.221 445.626 515.193 459.164
C 511.928 462.839 508.179 465.851 503.587 467.7
C 492.898 472.003 478.852 469.342 471.31 460.374
C 463.71 451.339 461.884 438.013 463.477 426.613 Z
M 466.458 427.605
C 465.33 437.669 466.559 449.231 472.995 457.431
C 479.725 466.005 492.682 468.8 502.606 464.711
C 507.136 462.845 511.022 459.618 514.038 455.785
C 521.604 446.169 524.691 433.832 527.075 422.064
C 528.903 413.041 530.882 404.057 533.273 395.164
C 538.147 377.032 547.523 360.087 550.765 341.533
C 554.633 319.389 539.283 297.615 519.4 289.124
C 514.711 287.121 509.845 286.113 504.866 285.142
C 500.01 284.194 494.904 283.535 492.22 278.797
C 489.054 273.206 493.64 269.283 496.266 264.762
C 499.168 259.766 500.957 253.145 499.563 247.402
C 499.074 245.388 498.325 243.491 497.176 241.758
C 493.413 236.081 485.639 236.006 480.468 239.725
C 478.243 241.326 476.668 243.685 475.366 246.054
C 472.518 251.235 471.257 258.089 472.091 263.946
C 472.721 268.379 474.354 272.617 474.727 277.091
C 475.166 282.352 473.95 287.316 472.368 292.286
C 469.766 300.102 467.408 307.579 467.799 315.952
C 468.491 330.769 475.629 344.396 477.552 359.043
C 479.261 372.058 477.38 385.196 473.859 397.738
C 473.66 398.358 473.444 398.964 473.29 399.597
C 470.599 408.956 467.96 417.971 466.458 427.605 Z"
opacity="1" fill="rgb(7,7,8)" fill-rule="evenodd" />
<path d="
M 469.418 666.105
C 470.807 651.832 487.073 644.116 498.933 652.43
C 504.832 656.565 507.474 664.449 506.684 671.413
C 505.098 685.398 488.508 692.621 477.09 684.701
C 471.208 680.622 468.747 672.993 469.418 666.105 Z
M 473.478 667.111
C 473.298 670.093 473.838 673.18 475.066 675.911
C 475.854 677.66 476.958 679.287 478.365 680.596
C 484.221 686.046 493.404 685.244 498.692 679.417
C 501.084 676.782 502.359 672.991 502.53 669.481
C 502.747 665.013 501.047 659.991 497.808 656.846
C 492.643 651.832 483.782 651.478 478.452 656.419
C 476.993 657.771 475.88 659.467 475.038 661.26
C 474.183 663.083 473.6 665.088 473.478 667.111 Z"
opacity="1" fill="rgb(137,87,50)" fill-rule="evenodd" />
<path d="
M 469.892 428.102
C 470.77 424.201 471.174 420.206 472.153 416.303
C 474.445 407.165 477.697 398.279 479.571 389.034
C 481.961 377.247 481.994 365.052 479.904 353.243
C 481.738 353.96 483.403 356.186 484.825 357.529
C 487.741 360.285 490.796 362.848 493.976 365.293
C 500.86 370.588 508.634 374.66 516.043 379.148
C 520.358 381.761 523.91 384.673 527.01 388.674
C 527.959 389.899 529.177 391.214 529.782 392.652
C 530.367 394.041 529.313 396.108 528.961 397.488
C 527.907 401.616 526.711 405.689 525.774 409.847
C 523.164 421.437 521.442 433.698 516.249 444.494
C 513.372 450.477 509.46 456.046 503.625 459.471
C 501.009 461.006 498.1 462.054 495.069 462.292
C 492.532 462.491 490 462.23 487.509 461.743
C 472.256 458.755 468.698 441.303 469.892 428.102 Z"
opacity="1" fill="rgb(243,202,158)" fill-rule="evenodd" />
<path d="
M 471.44 309.104
C 472.321 304.055 473.31 299.213 475.285 294.448
C 476.165 292.326 477.2 290.067 478.958 288.533
C 479.92 289.43 480.075 291.282 480.44 292.523
C 481.207 295.135 482.082 297.829 483.117 300.348
C 486.339 308.197 490.693 315.267 495.869 321.975
C 503.893 332.374 514.237 340.331 525.69 346.616
C 531.418 349.76 537.839 351.846 543.448 355.112
C 541.61 360.695 539.756 366.28 537.544 371.736
C 535.123 377.706 532.344 384.181 531.628 390.629
C 529.054 387.335 527.068 384.098 523.811 381.326
C 517.504 375.96 510.191 372.226 503.146 367.963
C 496.793 364.118 491.057 359.248 485.803 354.029
C 483.638 351.879 481.173 349.746 479.385 347.262
C 477.805 345.066 477.19 341.987 476.407 339.44
C 474.951 334.702 473.586 330.001 472.582 325.144
C 471.506 319.937 470.796 314.422 471.44 309.104 Z"
opacity="1" fill="rgb(145,87,47)" fill-rule="evenodd" />
<path d="
M 474.936 258.611
C 475.207 252.976 477.48 245.824 482.215 242.345
C 483.314 241.537 484.461 240.972 485.776 240.609
C 493.9 238.373 497.598 246.242 497.338 253.121
C 497.053 260.651 492.64 266.384 486.013 269.534
C 483.982 270.501 480.392 271.874 478.158 270.818
C 477.032 270.286 476.44 268.918 476.074 267.815
C 475.128 264.966 474.792 261.61 474.936 258.611 Z"
opacity="1" fill="rgb(220,171,130)" fill-rule="evenodd" />
<path d="
M 482.648 287.757
C 503.319 287.361 524.951 290.956 538.27 308.424
C 540.425 311.251 542.361 314.178 543.766 317.456
C 545.315 321.068 546.634 325.163 547.117 329.078
C 547.718 333.955 547.458 339.024 546.477 343.836
C 545.901 346.661 544.782 349.357 544.171 352.144
C 543.358 352.512 540.375 350.707 539.519 350.33
C 534.52 348.127 529.703 345.588 524.964 342.874
C 504.986 331.437 486.439 311.2 482.648 287.757 Z"
opacity="1" fill="rgb(214,164,117)" fill-rule="evenodd" />
<path d="
M 483.153 476.182
C 488.976 478.73 493.629 484.944 489.678 490.938
C 489.061 491.875 488.453 492.866 487.454 493.436
C 485.73 493.163 486.946 490.811 487.247 489.796
C 489.075 487.438 488.873 482.926 486.925 480.747
C 485.444 479.091 483.337 478.581 483.153 476.182 Z"
opacity="1" fill="rgb(201,172,141)" fill-rule="evenodd" />
<path d="
M 495.49 495.124
C 495.402 491.275 499.981 489.958 502.832 488.953
C 509.394 486.641 518.401 486.965 524.703 489.918
C 527.258 491.116 530.566 493.105 530.454 496.341
C 530.33 499.908 525.853 501.225 523.142 502.307
C 516.522 504.95 509.097 503.796 502.506 501.911
C 499.191 500.963 495.578 498.935 495.49 495.124 Z
M 515.008 502.363
C 515.647 502.434 516.383 502.853 517.02 502.795
C 517.768 502.726 518.255 501.954 518.988 501.774
C 521.651 501.12 524.793 500.862 527.005 499.011
C 529.161 497.962 529.694 495.403 528.143 493.532
C 526.931 492.072 525.028 491.264 523.289 490.637
C 516.609 488.229 508.872 488.075 502.161 490.459
C 500.719 490.971 498.935 491.589 497.829 492.7
C 495.482 495.057 497.299 498.104 499.938 499.117
C 502.464 501.448 507.788 501.847 511.037 501.949
C 512.369 502.021 513.678 502.289 515.008 502.363 Z"
opacity="0.996" fill="rgb(8,6,7)" fill-rule="evenodd" />
<path d="
M 527.005 499.011
C 526.954 498.175 525.53 497.12 524.801 497.962
C 524.593 498.202 524.892 498.933 524.336 498.828
C 523.907 498.747 523.684 498.243 523.223 498.248
C 521.709 498.264 519.667 499.472 518.165 499.867
C 517.584 500.02 516.866 500.071 516.427 500.538
C 515.945 501.051 516.517 501.737 516.401 501.853
C 515.952 502.302 515.437 501.762 515.008 502.363
C 513.678 502.289 512.369 502.021 511.037 501.949
C 512.59 500.419 509.672 500.185 508.804 500.023
C 506.679 499.626 504.146 498.504 502.024 498.454
C 501.217 498.435 500.701 499.12 499.938 499.117
C 497.299 498.104 495.482 495.057 497.829 492.7
C 498.935 491.589 500.719 490.971 502.161 490.459
C 508.872 488.075 516.609 488.229 523.289 490.637
C 525.028 491.264 526.931 492.072 528.143 493.532
C 529.694 495.403 529.161 497.962 527.005 499.011 Z"
opacity="1" fill="rgb(111,118,126)" fill-rule="evenodd" />
<path d="
M 499.938 499.117
C 500.701 499.12 501.217 498.435 502.024 498.454
C 504.146 498.504 506.679 499.626 508.804 500.023
C 509.672 500.185 512.59 500.419 511.037 501.949
C 507.788 501.847 502.464 501.448 499.938 499.117 Z"
opacity="0.996" fill="rgb(100,100,112)" fill-rule="evenodd" />
<path d="
M 504.509 259.605
C 505.126 255.28 506.725 250.465 510.898 248.255
C 515.214 245.968 521.285 247.151 523.903 251.466
C 525.58 254.229 525.677 258.138 524.748 261.162
C 523.942 263.789 522.112 266.196 520.324 268.239
C 519.336 269.254 516.906 271.9 515.321 271.652
C 515.819 269.622 517.816 267.737 519.056 266.111
C 522.295 261.862 524.775 251.906 517.476 249.963
C 516.624 249.736 515.707 249.697 514.833 249.789
C 508.164 250.492 506.896 259.364 507.256 264.616
C 507.356 266.081 507.676 267.51 507.751 268.971
C 507.862 271.12 507.53 273.219 506.755 275.23
C 506.576 275.694 506.132 276.869 505.53 276.925
C 506.989 273.788 505.96 271.048 505.261 267.874
C 504.68 265.231 504.317 262.312 504.509 259.605 Z"
opacity="1" fill="rgb(18,18,19)" fill-rule="evenodd" />
<path d="
M 507.833 560.9
C 512.144 557.829 518.354 556.504 523.269 554.642
C 525.129 553.938 527.726 552.683 529.742 553.297
C 530.961 555.072 530.839 556.882 530.816 558.957
C 530.792 561.293 530.755 563.643 530.565 565.973
C 530.419 567.752 530.042 569.892 530.615 571.601
C 531.828 570.04 532.568 568.078 533.712 566.445
C 535.689 563.62 538.078 561.156 540.84 559.094
C 543.974 556.754 547.408 554.971 551.208 553.999
C 553.46 553.423 555.728 553.197 558.05 553.292
C 559.822 553.364 561.573 553.702 563.229 554.344
C 574.85 558.85 573.418 572.687 573.129 582.846
C 573.065 585.117 572.982 587.388 572.935 589.66
C 572.869 592.774 572.847 595.889 572.844 599.003
C 572.842 602.358 572.656 605.813 573.052 609.147
C 573.231 610.658 573.227 611.952 574.271 613.197
C 576.186 615.481 581.699 612.843 584.028 612.122
C 584.193 612.96 584.596 613.71 584.807 614.543
C 584.703 614.732 583.66 615.014 583.413 615.13
C 582.118 615.742 580.85 616.326 579.519 616.865
C 575.94 618.316 572.355 619.559 568.664 620.69
C 566.898 621.231 564.606 622.173 562.751 621.796
C 560.491 618.381 561.571 612.386 561.68 608.499
C 561.947 599.024 562.084 589.532 562.102 580.055
C 562.111 575.633 562.523 570.436 559.712 566.695
C 554.575 559.861 542.511 561.991 537.149 567.432
C 533.657 570.976 531.985 575.802 531.256 580.643
C 529.837 590.061 530.573 600.002 530.641 609.502
C 530.659 612.076 530.617 614.656 530.67 617.23
C 530.681 617.781 531.019 619.502 530.584 619.931
C 526.808 619.808 522.651 619.922 518.915 620.454
C 518.773 615.827 519.213 611.135 519.273 606.502
C 519.398 596.933 519.365 587.363 519.409 577.794
C 519.425 574.5 519.62 571.23 519.463 567.934
C 519.371 566.012 519.374 564.04 517.852 562.647
C 514.89 559.933 511.423 563.62 508.322 562.965
C 508.052 562.291 507.904 561.622 507.833 560.9 Z"
opacity="1" fill="rgb(49,89,112)" fill-rule="evenodd" />
<path d="
M 509.883 258.053
C 510.356 256.732 510.841 255.581 511.738 254.487
C 514.351 251.306 519.24 251.39 520.208 255.895
C 521.02 259.668 519.183 263.328 516.195 265.532
C 514.787 266.571 512.493 267.519 510.832 266.524
C 509.131 264.233 509.31 260.689 509.883 258.053 Z"
opacity="1" fill="rgb(218,175,139)" fill-rule="evenodd" />
<path d="
M 545.998 440.953
C 546.544 441.171 548.346 441.411 547.145 440.457
C 542.832 439.271 538.32 434.576 542.89 430.734
C 545.774 428.309 550.362 427.767 553.896 426.86
C 555.224 426.519 556.567 426.34 557.93 426.228
C 558.431 426.187 559.271 426.193 559.019 425.518
C 557.122 424.722 555.13 424.682 553.289 423.525
C 552.619 423.105 551.947 422.602 551.415 422.014
C 548.054 418.297 552.507 414.566 555.916 413.318
C 562.444 410.929 571.292 410.67 577.891 413.077
C 580.42 413.999 584.806 416.427 583.925 419.832
C 583.438 421.713 581.684 422.921 580.273 424.09
C 579.414 425.191 582.698 424.805 583.422 425.026
C 585.93 425.791 589.04 427.019 590.74 429.107
C 592.713 431.532 592.718 434.307 590.418 436.49
C 589.641 437.228 587.977 437.975 587.672 438.955
C 589.058 439.853 591.734 439.716 593.388 440.096
C 598.08 441.175 605.967 444.81 602.581 450.935
C 602.131 451.75 601.472 452.472 600.798 453.11
C 599.633 454.213 598.252 455.159 596.903 456.027
C 596.447 457.087 598.212 456.958 598.891 457.095
C 601.405 457.6 603.93 458.082 606.385 458.841
C 611.918 460.552 618.358 462.468 622.68 466.506
C 626.293 469.883 627.64 474.723 624.729 479.012
C 623.218 481.238 620.857 482.636 618.508 483.824
C 613.346 486.436 607.708 488.345 602.01 489.369
C 581.103 493.125 560.224 492.182 539.3 489.067
C 533.359 488.182 526.897 486.262 521.603 483.405
C 519.048 482.026 516.344 480.236 514.766 477.731
C 513.363 475.503 513.726 472.742 514.813 470.466
C 517.023 465.839 522.5 463.563 527.001 461.798
C 528.504 461.209 530.344 460.635 531.921 460.306
C 532.489 460.187 533.643 460.192 533.579 459.451
C 528.516 457.601 527.597 451.705 530.825 447.843
C 534.197 443.809 540.92 441.536 545.998 440.953 Z
M 597.415 459.336
C 597.217 456.533 592.314 458.261 590.891 458.786
C 583.445 461.533 575.443 463.957 567.488 464.629
C 564.358 464.894 561.186 464.695 558.048 464.751
C 551.632 464.865 544.897 464.915 538.842 462.446
C 536.623 461.541 532.301 460.237 530.979 463.27
C 529.105 462.963 526.946 463.784 525.187 464.375
C 519.816 466.18 514.8 469.808 515.886 476.052
C 517.555 479.964 521.618 482.402 525.561 483.633
C 530.856 485.285 535.912 486.661 541.374 487.731
C 551.278 489.672 561.476 490.184 571.548 490.272
C 581.525 490.359 591.775 490.128 601.545 487.916
C 608.524 486.335 616.757 484.727 622.357 479.867
C 625.627 477.029 625.492 472.022 622.996 468.76
C 620.057 464.92 613.296 462.006 608.536 461.865
C 605.478 460.415 600.774 457.923 597.415 459.336 Z
M 600.931 450.475
C 602.615 448.701 601.65 446.057 600 444.657
C 597.093 442.189 592.285 440.771 588.516 441.259
C 585.192 439.458 581.754 441.709 578.34 442.415
C 572.521 443.619 565.996 444.199 560.061 443.645
C 557.766 443.431 555.344 443.202 553.092 442.702
C 551.773 442.409 550.935 441.758 549.588 442.204
C 547.356 441.768 543.788 442.045 541.827 443.544
C 537.59 444.23 529.166 448.522 530.533 453.953
C 531.328 457.112 535.15 459.193 537.836 460.52
C 541.745 462.451 546.789 462.646 551.053 463.009
C 562.937 464.02 575.771 462.305 587.08 458.498
C 590.817 457.24 594.411 456.061 597.606 453.698
C 598.82 452.8 600.268 451.886 600.931 450.475 Z
M 567.522 441.998
C 568.927 443.112 572.481 441.722 574.091 441.485
C 578.179 440.882 583.395 440.259 586.904 437.865
C 589.356 436.192 592.347 432.8 589.674 429.871
C 588.638 428.736 586.906 428.471 585.527 428.006
C 584.122 427.381 583.141 426.249 581.549 425.947
C 578.023 425.277 574.17 426.68 570.646 426.806
C 564.304 427.033 558.14 427.291 551.916 428.706
C 548.993 429.37 541.115 430.888 542.348 435.373
C 542.958 437.59 547.18 438.323 548.936 439.468
C 550.118 440.887 554.273 441.147 556.068 441.302
C 559.836 441.705 563.695 442.739 567.522 441.998 Z
M 562.501 424.352
C 563.26 425.432 564.847 425.892 566.027 425.073
C 570.41 425.06 575.417 425.28 579.272 422.843
C 581.653 421.337 584.15 419.276 581.574 416.505
C 581.14 416.039 580.611 415.728 580.055 415.437
C 573.177 412.39 565.46 411.981 558.181 413.902
C 555.255 414.674 550.993 416.43 551.86 420.137
C 553.763 423.607 558.933 424.239 562.501 424.352 Z"
opacity="1" fill="rgb(5,8,9)" fill-rule="evenodd" />
<path d="
M 527.005 499.011
C 524.793 500.862 521.651 501.12 518.988 501.774
C 518.255 501.954 517.768 502.726 517.02 502.795
C 516.383 502.853 515.647 502.434 515.008 502.363
C 515.437 501.762 515.952 502.302 516.401 501.853
C 516.517 501.737 515.945 501.051 516.427 500.538
C 516.866 500.071 517.584 500.02 518.165 499.867
C 519.667 499.472 521.709 498.264 523.223 498.248
C 523.684 498.243 523.907 498.747 524.336 498.828
C 524.892 498.933 524.593 498.202 524.801 497.962
C 525.53 497.12 526.954 498.175 527.005 499.011 Z"
opacity="0.996" fill="rgb(89,86,95)" fill-rule="evenodd" />
<path d="
M 530.979 463.27
C 537.8 467.961 546.346 468.823 554.498 468.886
C 563.866 468.959 573.49 468.379 582.566 465.894
C 587.574 464.523 593.633 463.192 597.415 459.336
C 600.774 457.923 605.478 460.415 608.536 461.865
C 609.682 464.842 611.773 466.872 611.49 470.346
C 611.235 473.469 609.046 475.463 606.541 477.016
C 602.334 479.624 597.253 481.097 592.416 482.005
C 573.877 485.486 554.582 484.8 536.038 481.745
C 532.185 481.11 527.855 480.159 524.313 478.497
C 521.736 477.288 518.771 475.058 515.886 476.052
C 514.8 469.808 519.816 466.18 525.187 464.375
C 526.946 463.784 529.105 462.963 530.979 463.27 Z"
opacity="1" fill="rgb(65,101,127)" fill-rule="evenodd" />
<path d="
M 515.886 476.052
C 518.771 475.058 521.736 477.288 524.313 478.497
C 527.855 480.159 532.185 481.11 536.038 481.745
C 554.582 484.8 573.877 485.486 592.416 482.005
C 597.253 481.097 602.334 479.624 606.541 477.016
C 609.046 475.463 611.235 473.469 611.49 470.346
C 611.773 466.872 609.682 464.842 608.536 461.865
C 613.296 462.006 620.057 464.92 622.996 468.76
C 625.492 472.022 625.627 477.029 622.357 479.867
C 616.757 484.727 608.524 486.335 601.545 487.916
C 591.775 490.128 581.525 490.359 571.548 490.272
C 561.476 490.184 551.278 489.672 541.374 487.731
C 535.912 486.661 530.856 485.285 525.561 483.633
C 521.618 482.402 517.555 479.964 515.886 476.052 Z"
opacity="1" fill="rgb(43,70,90)" fill-rule="evenodd" />
<path d="
M 523.988 268.62
C 524.339 266.405 524.691 264.418 525.881 262.458
C 526.975 260.654 528.502 258.966 530.507 258.147
C 534.971 256.321 540.033 259.372 541.339 263.774
C 542.778 268.627 540.624 272.852 537.043 276.094
C 535.639 277.365 533.857 279.001 531.887 279.09
C 532.32 277.518 534.113 276.288 535.209 275.155
C 537.031 273.273 538.721 271.053 539.078 268.374
C 539.324 266.533 539.09 264.573 538.065 262.991
C 536.03 259.85 531.447 259.154 529.026 262.316
C 526.795 265.231 525.878 269.858 525.968 273.474
C 526.004 274.942 526.496 276.633 526.199 278.077
C 525.204 278.393 524.991 276.738 524.79 276.065
C 524.106 273.764 523.733 271.012 523.988 268.62 Z"
opacity="1" fill="rgb(15,19,16)" fill-rule="evenodd" />
<path d="
M 524.246 649.832
C 525.451 649.864 527.347 649.421 528.446 649.888
C 527.78 661.133 529.228 672.511 528.606 683.736
C 533.07 683.703 537.539 683.74 542.005 683.735
C 542.753 683.734 546.101 683.339 546.403 683.887
C 546.32 685.038 546.038 686.512 546.301 687.636
C 539.02 687.906 531.628 687.091 524.327 687.563
C 524.759 675.083 524.634 662.315 524.246 649.832 Z"
opacity="1" fill="rgb(138,86,46)" fill-rule="evenodd" />
<path d="
M 528.405 268.096
C 528.794 266.725 528.95 265.452 529.854 264.267
C 531.871 261.624 536.863 262.042 537.684 265.634
C 538.353 268.563 535.684 271.979 533.429 273.477
C 532.604 274.026 530.758 275.192 529.764 274.682
C 528.529 272.49 527.964 270.63 528.405 268.096 Z"
opacity="1" fill="rgb(218,179,149)" fill-rule="evenodd" />
<path d="
M 597.415 459.336
C 593.633 463.192 587.574 464.523 582.566 465.894
C 573.49 468.379 563.866 468.959 554.498 468.886
C 546.346 468.823 537.8 467.961 530.979 463.27
C 532.301 460.237 536.623 461.541 538.842 462.446
C 544.897 464.915 551.632 464.865 558.048 464.751
C 561.186 464.695 564.358 464.894 567.488 464.629
C 575.443 463.957 583.445 461.533 590.891 458.786
C 592.314 458.261 597.217 456.533 597.415 459.336 Z"
opacity="1" fill="rgb(39,70,93)" fill-rule="evenodd" />
<path d="
M 541.827 443.544
C 543.788 442.045 547.356 441.768 549.588 442.204
C 549.388 442.48 548.342 443.515 548.636 443.889
C 549.344 444.788 550.953 444.747 551.956 444.984
C 554.504 445.588 556.998 446.184 559.605 446.521
C 566.679 447.437 575.318 446.816 582.054 444.402
C 584.19 443.637 586.953 442.974 588.516 441.259
C 592.285 440.771 597.093 442.189 600 444.657
C 601.65 446.057 602.615 448.701 600.931 450.475
C 601.048 449.844 599.117 450.553 598.714 450.79
C 596.486 452.1 594.212 453.462 591.819 454.452
C 585.453 457.085 578.678 458.724 571.907 459.942
C 561.976 461.729 551.739 461.297 541.961 459.019
C 539.061 458.343 532.728 455.785 532.988 452.001
C 533.33 447.028 539.823 446.907 541.827 443.544 Z"
opacity="1" fill="rgb(127,169,183)" fill-rule="evenodd" />
<path d="
M 536.457 280.094
C 536.95 278.19 537.829 276.621 539.091 275.115
C 540.032 273.992 541.236 272.771 542.638 272.257
C 546.916 270.69 551.257 273.93 552.137 278.066
C 552.892 281.614 551.585 285.07 548.969 287.462
C 547.756 288.572 545.918 290.6 544.122 290.149
C 545.611 287.165 548.765 285.554 549.574 282.073
C 550.828 276.672 545.634 271.648 541.031 276.302
C 537.367 280.006 538.803 283.759 538.355 288.353
C 537.14 288.453 537.082 287.499 536.865 286.505
C 536.414 284.441 536.169 282.194 536.457 280.094 Z"
opacity="1" fill="rgb(20,20,17)" fill-rule="evenodd" />
<path d="
M 539.731 280.081
C 540.147 279.217 540.723 278.404 541.42 277.746
C 543.555 275.732 546.967 276.407 547.644 279.551
C 548.155 281.929 547.041 283.927 545.286 285.462
C 544.566 286.092 543.531 286.985 542.535 286.804
C 541.037 284.985 539.301 282.532 539.731 280.081 Z"
opacity="1" fill="rgb(223,192,152)" fill-rule="evenodd" />
<path d="
M 585.527 428.006
C 586.336 429.066 584.607 432.088 583.911 432.983
C 580.906 436.842 574.837 437.8 570.394 438.991
C 568.083 439.164 565.783 439.523 563.481 439.696
C 563.077 439.726 559.914 439.589 560.097 440.003
C 560.425 440.745 561.374 440.906 562.065 440.864
C 563.882 440.755 565.755 440.759 567.564 440.968
C 568.67 441.322 568.717 441.784 567.522 441.998
C 563.695 442.739 559.836 441.705 556.068 441.302
C 556.458 440.825 556.679 440.399 556.421 439.716
C 556.267 439.309 554.74 439.353 554.395 439.315
C 552.511 439.111 550.621 438.285 548.936 439.468
C 547.18 438.323 542.958 437.59 542.348 435.373
C 541.115 430.888 548.993 429.37 551.916 428.706
C 558.14 427.291 564.304 427.033 570.646 426.806
C 574.17 426.68 578.023 425.277 581.549 425.947
C 583.141 426.249 584.122 427.381 585.527 428.006 Z"
opacity="1" fill="rgb(67,99,123)" fill-rule="evenodd" />
<path d="
M 545.998 440.953
C 546.587 440.869 546.768 440.927 547.145 440.457
C 548.346 441.411 546.544 441.171 545.998 440.953 Z"
opacity="1" fill="rgb(127,169,183)" fill-rule="evenodd" />
<path d="
M 547.402 291.539
C 549.484 287.547 555.178 286.475 558.193 290.009
C 560.729 292.984 561.167 297.132 559.964 300.756
C 558.866 303.45 557.284 305.791 554.938 307.543
C 554.42 307.93 553.032 309.011 552.376 308.615
C 555.327 304.896 558.4 301.006 557.904 295.942
C 557.527 292.085 553.919 288.702 550.363 291.471
C 547.967 293.337 548.974 296.807 549.443 299.36
C 549.566 300.029 550.446 301.796 549.93 302.327
C 548.902 302.098 548.397 300.756 548.079 299.876
C 547.151 297.312 546.72 294.203 547.402 291.539 Z"
opacity="1" fill="rgb(26,26,27)" fill-rule="evenodd" />
<path d="
M 549.588 442.204
C 550.935 441.758 551.773 442.409 553.092 442.702
C 555.344 443.202 557.766 443.431 560.061 443.645
C 565.996 444.199 572.521 443.619 578.34 442.415
C 581.754 441.709 585.192 439.458 588.516 441.259
C 586.953 442.974 584.19 443.637 582.054 444.402
C 575.318 446.816 566.679 447.437 559.605 446.521
C 556.998 446.184 554.504 445.588 551.956 444.984
C 550.953 444.747 549.344 444.788 548.636 443.889
C 548.342 443.515 549.388 442.48 549.588 442.204 Z"
opacity="1" fill="rgb(96,139,152)" fill-rule="evenodd" />
<path d="
M 548.936 439.468
C 550.621 438.285 552.511 439.111 554.395 439.315
C 554.74 439.353 556.267 439.309 556.421 439.716
C 556.679 440.399 556.458 440.825 556.068 441.302
C 554.273 441.147 550.118 440.887 548.936 439.468 Z"
opacity="1" fill="rgb(51,77,89)" fill-rule="evenodd" />
<path d="
M 550.924 294.556
C 551.327 293.433 551.814 292.632 552.798 291.928
C 555.679 293.161 556.809 296.221 556.112 299.147
C 555.74 300.704 554.688 303.155 552.634 302.352
C 550.678 300.749 550.369 296.828 550.924 294.556 Z"
opacity="1" fill="rgb(226,188,156)" fill-rule="evenodd" />
<path d="
M 580.055 415.437
C 580.363 415.705 580.426 415.974 580.069 416.345
C 579.572 416.862 578.599 416.787 578.052 417.285
C 577.567 417.725 577.462 418.358 576.999 418.815
C 574.279 421.039 571.148 421.394 568.208 423.169
C 567.08 423.85 565.606 423.676 565.047 425.049
C 564.129 424.961 563.387 424.549 562.501 424.352
C 558.933 424.239 553.763 423.607 551.86 420.137
C 550.993 416.43 555.255 414.674 558.181 413.902
C 565.46 411.981 573.177 412.39 580.055 415.437 Z"
opacity="1" fill="rgb(135,172,184)" fill-rule="evenodd" />
<path d="
M 558.897 666.104
C 559.511 660.318 562.791 654.553 567.864 651.591
C 578.01 645.664 591.61 650.746 595.145 661.963
C 596.049 664.833 596.454 667.983 596.142 670.981
C 594.64 685.427 576.961 693.162 565.536 683.806
C 563.031 681.754 561.253 678.893 560.075 675.901
C 558.874 672.85 558.553 669.34 558.897 666.104 Z
M 563.401 665.077
C 562.192 671.45 564.613 678.696 570.21 682.244
C 578.945 687.782 589.895 681.429 591.707 671.891
C 593.021 664.973 589.732 656.743 582.991 653.91
C 574.276 650.247 565.096 656.137 563.401 665.077 Z"
opacity="1" fill="rgb(136,85,47)" fill-rule="evenodd" />
<path d="
M 570.394 438.991
C 569.444 439.774 568.051 439.744 567.564 440.968
C 565.755 440.759 563.882 440.755 562.065 440.864
C 561.374 440.906 560.425 440.745 560.097 440.003
C 559.914 439.589 563.077 439.726 563.481 439.696
C 565.783 439.523 568.083 439.164 570.394 438.991 Z"
opacity="0.996" fill="rgb(39,55,73)" fill-rule="evenodd" />
<path d="
M 562.501 424.352
C 563.387 424.549 564.129 424.961 565.047 425.049
C 565.699 425.071 565.372 425.063 566.027 425.073
C 564.847 425.892 563.26 425.432 562.501 424.352 Z"
opacity="1" fill="rgb(28,27,51)" fill-rule="evenodd" />
<path d="
M 580.055 415.437
C 580.611 415.728 581.14 416.039 581.574 416.505
C 584.15 419.276 581.653 421.337 579.272 422.843
C 575.417 425.28 570.41 425.06 566.027 425.073
C 565.372 425.063 565.699 425.071 565.047 425.049
C 565.606 423.676 567.08 423.85 568.208 423.169
C 571.148 421.394 574.279 421.039 576.999 418.815
C 577.462 418.358 577.567 417.725 578.052 417.285
C 578.599 416.787 579.572 416.862 580.069 416.345
C 580.426 415.974 580.363 415.705 580.055 415.437 Z"
opacity="1" fill="rgb(120,152,162)" fill-rule="evenodd" />
<path d="
M 570.394 438.991
C 574.837 437.8 580.906 436.842 583.911 432.983
C 584.607 432.088 586.336 429.066 585.527 428.006
C 586.906 428.471 588.638 428.736 589.674 429.871
C 592.347 432.8 589.356 436.192 586.904 437.865
C 583.395 440.259 578.179 440.882 574.091 441.485
C 572.481 441.722 568.927 443.112 567.522 441.998
C 568.717 441.784 568.67 441.322 567.564 440.968
C 568.051 439.744 569.444 439.774 570.394 438.991 Z"
opacity="1" fill="rgb(48,70,88)" fill-rule="evenodd" />
<path d="
M 611.96 667.617
C 612.535 662.79 613.726 658.152 617.18 654.497
C 623.093 648.241 634.002 646.997 641.005 652.261
C 643.16 653.882 644.343 656.114 645.606 658.426
C 644.735 658.794 642.217 659.981 641.397 659.609
C 639.56 652.771 629.913 651.477 624.443 654.102
C 619.06 656.685 616.254 662.72 616.219 668.484
C 616.191 673.161 617.688 677.722 621.188 680.961
C 627.408 686.717 636.973 685.08 641.508 678.123
C 642.682 676.321 642.019 673.312 642.205 671.297
C 639.57 671.191 636.925 671.34 634.288 671.343
C 633.182 671.344 631.711 671.616 630.703 671.163
C 630.614 670.013 630.632 668.882 630.657 667.73
C 635.79 667.487 641.083 667.363 646.215 667.626
C 646.121 672.489 646.268 677.368 646.19 682.236
C 646.17 683.459 645.614 686.562 646.247 687.582
C 645.04 687.422 643.914 687.473 642.706 687.588
C 642.737 685.863 642.684 683.866 642.474 682.158
C 641.585 682.34 640.468 684.193 639.679 684.8
C 637.519 686.46 635.12 687.569 632.426 688.038
C 620.542 690.105 611.307 678.715 611.96 667.617 Z"
opacity="1" fill="rgb(135,84,46)" fill-rule="evenodd" />
<path d="
M 624.937 599.098
C 626.082 593.701 629.751 584.694 636.962 586.373
C 632.761 595.15 633.147 608.213 641.163 614.832
C 650.922 622.891 672.208 622.696 677.99 609.686
C 682.658 599.183 676.873 589.412 668.625 582.926
C 661.248 577.126 652.695 572.998 645.311 567.196
C 641.105 563.891 637.268 559.796 635.418 554.678
C 634.502 552.143 634.008 549.48 633.834 546.793
C 633.637 543.763 633.991 540.765 634.903 537.871
C 640.2 521.074 660.867 517.697 675.753 522.794
C 679.598 524.11 682.816 526.126 686.17 528.354
C 686.903 529.513 686.27 532.606 686.23 533.998
C 686.082 539.209 685.409 544.512 685.613 549.719
C 684.758 549.82 682.958 550.065 682.212 549.614
C 681.683 540.76 677.953 530.996 669.697 526.714
C 660.034 521.701 644.971 525.326 643.35 537.475
C 641.837 548.819 651.971 555.454 660.28 560.691
C 671.986 568.069 686.221 575.606 688.996 590.5
C 689.398 592.659 689.665 594.857 689.59 597.055
C 689.496 599.806 688.983 602.655 688.021 605.24
C 681.499 622.763 660.237 627.201 643.837 622.603
C 632.93 619.545 623.293 611.394 624.937 599.098 Z"
opacity="1" fill="rgb(48,90,112)" fill-rule="evenodd" />
<path d="
M 659.434 649.645
C 661.059 649.723 662.669 649.461 664.289 649.709
C 668.612 655.726 671.943 662.857 675.545 669.325
C 676.715 668.155 677.319 665.561 678.186 664.084
C 680.958 659.36 683.526 654.435 686.474 649.824
C 688.01 649.286 689.855 649.617 691.463 649.463
C 687.398 656.535 682.671 663.277 678.738 670.423
C 676.922 673.459 677.428 676.618 677.422 680.043
C 677.417 682.464 677.135 685.034 677.39 687.437
C 676.052 687.339 674.698 687.317 673.358 687.384
C 672.958 686.378 673.281 684.784 673.279 683.699
C 673.271 680.326 674.074 675.931 673.171 672.672
C 672.503 670.262 670.214 667.688 668.944 665.515
C 665.834 660.196 662.763 654.831 659.434 649.645 Z"
opacity="1" fill="rgb(132,86,48)" fill-rule="evenodd" />
<path d="
M 700.949 585.599
C 702.13 575.151 707.688 563.766 716.916 558.175
C 729.946 550.281 750.291 550.829 759.728 564.24
C 761.495 566.751 762.808 569.73 763.631 572.68
C 765.059 577.796 765.326 583.33 764.76 588.602
C 763.524 600.104 757.563 611.747 747.26 617.605
C 735.438 624.327 718.247 623.542 708.591 613.28
C 705.178 609.653 703.023 605.164 701.778 600.381
C 700.544 595.644 700.401 590.443 700.949 585.599 Z
M 713.952 578.617
C 713.221 586.491 714.05 594.865 716.547 602.376
C 717.764 606.036 719.453 609.774 722.144 612.597
C 728.929 619.714 740.32 619.603 746.549 611.78
C 750.224 607.163 751.489 600.687 752.056 594.964
C 752.867 586.763 751.677 578.029 748.575 570.396
C 747.256 567.151 745.61 563.99 743 561.579
C 736.639 555.704 726.132 555.316 720.172 562.083
C 716.197 566.597 714.497 572.746 713.952 578.617 Z"
opacity="1" fill="rgb(51,92,112)" fill-rule="evenodd" />
<path d="
M 769.351 525.881
C 774.814 523.256 780.801 521.692 786.514 519.708
C 788.143 519.142 791.463 517.575 792.774 519.323
C 793.246 522.134 792.723 525.417 792.555 528.255
C 792.27 533.076 792.138 537.907 791.971 542.734
C 791.442 557.981 791.406 573.255 791.429 588.508
C 791.438 594.266 791.438 600.025 791.607 605.775
C 791.678 608.17 791.232 611.072 792.943 613.026
C 795.265 615.679 800.969 612.331 803.628 611.683
C 803.958 612.572 804.271 613.472 804.317 614.427
C 802.565 615.471 800.457 616.167 798.577 616.975
C 794.931 618.542 791.536 620.19 787.669 621.213
C 786.163 621.612 782.79 622.734 781.447 621.628
C 780.066 620.492 780.213 618.452 780.203 616.858
C 780.177 612.575 780.255 608.283 780.337 604
C 780.669 586.676 780.698 569.332 780.723 552.002
C 780.732 545.986 780.737 539.966 780.599 533.952
C 780.547 531.736 780.456 528.667 778.189 527.489
C 776.054 526.38 772.123 527.823 769.941 528.413
C 769.516 527.604 769.454 526.781 769.351 525.881 Z"
opacity="1" fill="rgb(51,92,113)" fill-rule="evenodd" />
<path d="
M 809.937 584.096
C 811.032 579.402 812.004 574.766 814.444 570.525
C 821.853 557.646 837.199 549.734 851.983 554.159
C 855.343 555.164 858.79 557.053 860.958 559.874
C 864.697 564.742 864.503 571.683 859.594 575.677
C 856.996 577.791 853.619 578.874 850.49 579.92
C 843.774 582.165 836.72 583.928 829.727 585.023
C 827 585.45 823.749 585.301 821.154 586.16
C 821.07 588.696 821.729 591.429 822.438 593.853
C 823.872 598.755 826.513 603.573 830.384 606.983
C 837.68 613.41 848.341 614.203 856.687 609.457
C 859.369 607.932 861.514 606.129 863.288 603.601
C 864.266 603.944 865.115 604.546 865.978 605.111
C 864.943 606.623 863.845 608.105 862.675 609.522
C 860.316 612.676 857.392 615.316 854.068 617.416
C 850.974 619.372 847.649 620.703 844.043 621.33
C 840.393 621.966 836.642 622.066 832.984 621.377
C 816.052 618.185 807.266 600.144 809.937 584.096 Z
M 820.99 579.618
C 820.887 580.646 820.855 581.672 820.826 582.705
C 821.804 582.926 822.915 582.51 823.901 582.412
C 826.716 582.135 829.514 581.526 832.298 581.037
C 837.215 580.174 844.177 578.936 848.122 575.67
C 853.972 570.827 849.809 560.784 843.932 558.195
C 836.065 554.729 828.304 560.479 824.532 566.974
C 822.242 570.917 821.749 575.231 820.99 579.618 Z"
opacity="1" fill="rgb(49,89,111)" fill-rule="evenodd" />

</svg>